<svg width="329" height="322" viewBox="0 0 329 322" fill="none" xmlns="http://www.w3.org/2000/svg">
<g clip-path="url(#clip0_5_980)">
<path d="M77.9699 89.2159L9.0708 24.6893C9.35317 5.55978 26.978 4.80591 26.978 4.80591L93.9005 72.4894C83.5703 76.6122 79.523 84.5985 77.9699 89.2159Z" fill="white"/>
<path d="M246.429 171.836C239.37 186.654 212.403 228.14 139.527 201.967C65.216 171.459 90.4179 105.895 90.4179 105.895C90.8885 104.717 91.5003 103.61 92.2062 102.55L81.8525 92.8675C82.3467 90.4645 85.194 80.1459 97.5478 76.1881L112.608 91.4069C130.468 87.9673 156.446 91.454 183.154 102.197C190.19 105.024 196.849 108.181 203.038 111.573C203.108 113.128 203.203 114.706 203.367 116.308C196.708 112.586 189.413 109.076 181.648 105.942C141.339 89.7578 103.336 89.8991 96.7713 106.272C90.2061 122.645 117.549 149.055 157.882 165.263C159.599 165.946 161.317 166.606 163.035 167.242L174.071 171.647C186.213 176.5 200.685 177.513 210.709 177.513C217.792 177.513 222.616 177.018 222.804 176.995C223.557 176.924 233.558 176.005 246.429 171.836Z" fill="white"/>
<path d="M321.047 36.4685C321.047 36.4685 306.787 52.1585 277.043 57.1293C239.111 60.8751 222.804 88.6506 222.804 88.6506C222.804 88.6506 220.569 83.2557 227.957 73.3375C227.957 73.3375 200.544 78.8738 209.462 125.849C210.427 130.867 210.521 135.131 209.909 138.807H209.933C209.933 138.807 208.285 159.727 175.812 167.265C187.272 171.836 201.132 172.801 210.709 172.801C217.627 172.801 222.31 172.307 222.31 172.307C222.31 172.307 258.948 169.221 282.408 145.191C301.069 126.109 301.139 108.157 300.41 101.608C300.363 101.608 294.809 113.198 282.032 118.24L281.985 118.193C281.985 118.193 280.408 118.664 278.691 118.664C275.679 118.664 272.196 117.203 275.843 109.217C280.197 103.775 287.021 97.8384 297.727 93.3151C323.917 82.2191 321.047 36.4685 321.047 36.4685ZM284.762 126.957C284.762 126.957 267.725 163.991 214.757 158.949C214.757 158.949 225.651 144.743 221.369 121.797C218.498 102.126 234.687 81.2061 268.337 78.4026C268.337 78.4026 244.335 92.1372 246.688 117.557C249.065 143 284.762 126.957 284.762 126.957Z" fill="#0CA3EB"/>
<path d="M313.422 18.5641C314.034 2.68567 320.811 0 320.811 0C320.811 0 304.645 1.90824 303.986 13.6875C303.328 25.4432 305.398 27.8932 299.774 35.9267C299.798 35.9031 312.811 34.4661 313.422 18.5641Z" fill="#0CA3EB"/>
<path d="M241.088 53.9725C246.9 48.554 242.594 41.722 242.594 41.722C242.594 41.722 243.841 45.6563 238.193 50.0146C232.546 54.3494 235.746 60.7337 235.746 60.7337C235.746 60.7337 235.275 59.3909 241.088 53.9725Z" fill="#0CA3EB"/>
<path d="M32.3902 243.406V251.628H15.2596V260.51H28.084V268.496H15.2596V285.552H5V243.43H32.3902V243.406Z" fill="white"/>
<path d="M44.1795 283.903C41.5676 282.513 39.4968 280.511 38.0144 277.896C36.5084 275.304 35.7554 272.265 35.7554 268.779C35.7554 265.339 36.5084 262.3 38.0379 259.685C39.5439 257.07 41.6382 255.044 44.2736 253.654C46.9091 252.241 49.874 251.557 53.1449 251.557C56.4157 251.557 59.3806 252.264 62.0161 253.654C64.6516 255.044 66.7223 257.07 68.2518 259.685C69.7578 262.3 70.5344 265.339 70.5344 268.779C70.5344 272.218 69.7578 275.257 68.2283 277.872C66.6988 280.487 64.581 282.513 61.9455 283.903C59.2865 285.317 56.3216 286 53.0507 286C49.7799 286 46.7915 285.317 44.1795 283.903ZM58.0158 274.975C59.4041 273.538 60.0865 271.488 60.0865 268.802C60.0865 266.117 59.4277 264.067 58.0864 262.63C56.7451 261.193 55.098 260.463 53.1449 260.463C51.1447 260.463 49.4975 261.169 48.1798 262.583C46.8621 263.996 46.2032 266.07 46.2032 268.802C46.2032 271.488 46.8621 273.538 48.1563 274.975C49.4505 276.412 51.0741 277.142 53.0507 277.142C55.0274 277.142 56.6275 276.412 58.0158 274.975Z" fill="white"/>
<path d="M82.347 283.903C79.735 282.513 77.6643 280.511 76.1818 277.896C74.6758 275.304 73.9229 272.265 73.9229 268.779C73.9229 265.339 74.6758 262.3 76.2054 259.685C77.7114 257.07 79.8056 255.044 82.4411 253.654C85.0766 252.241 88.0415 251.557 91.3123 251.557C94.5832 251.557 97.5481 252.264 100.184 253.654C102.819 255.044 104.89 257.07 106.419 259.685C107.925 262.3 108.702 265.339 108.702 268.779C108.702 272.218 107.925 275.257 106.396 277.872C104.866 280.487 102.748 282.513 100.113 283.903C97.454 285.317 94.489 286 91.2182 286C87.9239 286 84.9825 285.317 82.347 283.903ZM96.2068 274.975C97.5952 273.538 98.2776 271.488 98.2776 268.802C98.2776 266.117 97.6187 264.067 96.2774 262.63C94.9361 261.193 93.289 260.463 91.3359 260.463C89.3357 260.463 87.6886 261.169 86.3708 262.583C85.0531 263.996 84.3942 266.07 84.3942 268.802C84.3942 271.488 85.0531 273.538 86.3473 274.975C87.6415 276.412 89.2651 277.142 91.2418 277.142C93.2184 277.142 94.8185 276.412 96.2068 274.975Z" fill="white"/>
<path d="M114.067 259.662C115.361 257.07 117.126 255.068 119.385 253.654C121.62 252.241 124.115 251.558 126.868 251.558C129.056 251.558 131.08 252.005 132.892 252.947C134.704 253.866 136.139 255.115 137.174 256.67V241.121H147.434V285.529H137.174V280.723C136.21 282.325 134.845 283.597 133.08 284.563C131.292 285.529 129.221 286 126.868 286C124.115 286 121.62 285.293 119.385 283.88C117.149 282.466 115.385 280.44 114.067 277.825C112.773 275.21 112.114 272.171 112.114 268.732C112.114 265.292 112.773 262.253 114.067 259.662ZM135.033 262.724C133.621 261.24 131.88 260.51 129.856 260.51C127.833 260.51 126.091 261.24 124.679 262.701C123.268 264.161 122.562 266.164 122.562 268.732C122.562 271.3 123.268 273.326 124.679 274.833C126.091 276.341 127.833 277.071 129.856 277.071C131.903 277.071 133.621 276.341 135.033 274.857C136.445 273.373 137.151 271.347 137.151 268.802C137.174 266.234 136.468 264.208 135.033 262.724Z" fill="white"/>
<path d="M155.599 246.964C154.47 245.903 153.881 244.584 153.881 243.029C153.881 241.427 154.446 240.108 155.599 239.048C156.752 237.988 158.211 237.446 159.999 237.446C161.764 237.446 163.2 237.988 164.353 239.048C165.482 240.108 166.07 241.451 166.07 243.029C166.07 244.584 165.506 245.903 164.353 246.964C163.2 248.024 161.764 248.566 159.999 248.566C158.211 248.566 156.752 248.024 155.599 246.964ZM165.106 252.052V285.552H154.846V252.052H165.106Z" fill="white"/>
<path d="M203.885 271.252H180.683C180.848 273.349 181.507 274.928 182.683 276.035C183.86 277.142 185.319 277.684 187.037 277.684C189.601 277.684 191.366 276.6 192.378 274.456H203.297C202.732 276.647 201.72 278.626 200.261 280.393C198.802 282.16 196.967 283.526 194.778 284.539C192.59 285.552 190.119 286.047 187.413 286.047C184.142 286.047 181.224 285.34 178.659 283.95C176.095 282.56 174.094 280.558 172.659 277.943C171.224 275.352 170.494 272.313 170.494 268.826C170.494 265.339 171.2 262.3 172.612 259.709C174.024 257.117 176.024 255.115 178.589 253.701C181.154 252.288 184.072 251.605 187.389 251.605C190.637 251.605 193.508 252.288 196.025 253.654C198.543 255.021 200.52 256.952 201.932 259.473C203.344 261.994 204.05 264.939 204.05 268.284C204.073 269.203 204.002 270.216 203.885 271.252ZM193.578 265.551C193.578 263.784 192.99 262.394 191.79 261.358C190.59 260.321 189.084 259.803 187.295 259.803C185.578 259.803 184.119 260.298 182.942 261.311C181.766 262.324 181.036 263.737 180.754 265.575H193.578V265.551Z" fill="white"/>
<path d="M245.912 243.406V285.529H235.652V268.19H219.698V285.529H209.438V243.406H219.698V259.921H235.652V243.406H245.912Z" fill="#0CA3EB"/>
<path d="M286.314 252.052V285.552H276.055V280.982C275.019 282.466 273.608 283.644 271.819 284.563C270.031 285.458 268.078 285.906 265.913 285.906C263.348 285.906 261.089 285.34 259.136 284.186C257.183 283.032 255.653 281.383 254.571 279.239C253.488 277.071 252.947 274.527 252.947 271.606V252.029H263.136V270.216C263.136 272.454 263.725 274.197 264.878 275.446C266.031 276.694 267.584 277.307 269.56 277.307C271.56 277.307 273.137 276.694 274.29 275.446C275.443 274.197 276.031 272.454 276.031 270.216V252.029H286.314V252.052Z" fill="#0CA3EB"/>
<path d="M308.081 252.995C309.869 252.029 311.94 251.558 314.246 251.558C316.999 251.558 319.493 252.264 321.729 253.654C323.964 255.044 325.729 257.047 327.023 259.662C328.318 262.253 328.976 265.292 328.976 268.732C328.976 272.171 328.318 275.21 327.023 277.825C325.729 280.44 323.964 282.466 321.729 283.88C319.493 285.293 316.999 286 314.246 286C311.893 286 309.822 285.529 308.081 284.587C306.316 283.644 304.951 282.396 303.939 280.841V285.529H293.68V241.121H303.939V256.787C304.904 255.233 306.269 253.96 308.081 252.995ZM316.434 262.701C315.022 261.24 313.258 260.51 311.187 260.51C309.14 260.51 307.422 261.264 306.01 262.724C304.598 264.208 303.892 266.211 303.892 268.779C303.892 271.347 304.598 273.349 306.01 274.833C307.422 276.317 309.163 277.048 311.187 277.048C313.234 277.048 314.952 276.294 316.411 274.81C317.846 273.302 318.576 271.276 318.576 268.708C318.552 266.164 317.846 264.161 316.434 262.701Z" fill="#0CA3EB"/>
</g>
<path d="M5.0772 316.821C4.11405 316.821 3.24721 316.659 2.47668 316.334C1.70616 315.995 1.10075 315.521 0.660449 314.912C0.22015 314.303 0 313.592 0 312.779H2.51796C2.573 313.389 2.81379 313.89 3.24033 314.282C3.68063 314.675 4.29292 314.871 5.0772 314.871C5.88901 314.871 6.52194 314.682 6.976 314.303C7.43005 313.91 7.65708 313.409 7.65708 312.8C7.65708 312.326 7.51261 311.94 7.22366 311.642C6.94848 311.344 6.59761 311.114 6.17107 310.952C5.75829 310.789 5.1804 310.613 4.43739 310.424C3.50176 310.18 2.73811 309.936 2.14646 309.692C1.56857 309.435 1.07323 309.043 0.660449 308.515C0.247668 307.986 0.0412781 307.282 0.0412781 306.402C0.0412781 305.59 0.247668 304.879 0.660449 304.27C1.07323 303.661 1.65112 303.193 2.39413 302.868C3.13713 302.544 3.99709 302.381 4.97401 302.381C6.3637 302.381 7.49885 302.726 8.37945 303.417C9.27381 304.094 9.76915 305.028 9.86546 306.22H7.26494C7.22366 305.705 6.97599 305.265 6.52194 304.899C6.06788 304.534 5.46935 304.351 4.72634 304.351C4.05213 304.351 3.50176 304.52 3.07522 304.859C2.64868 305.197 2.43541 305.685 2.43541 306.321C2.43541 306.754 2.56612 307.113 2.82755 307.397C3.10274 307.668 3.44672 307.885 3.8595 308.047C4.27228 308.21 4.83641 308.386 5.5519 308.575C6.5013 308.833 7.27182 309.09 7.86347 309.347C8.46889 309.604 8.97798 310.004 9.39076 310.545C9.8173 311.074 10.0306 311.784 10.0306 312.678C10.0306 313.396 9.83106 314.073 9.43204 314.709C9.04678 315.345 8.47577 315.86 7.719 316.252C6.976 316.632 6.0954 316.821 5.0772 316.821Z" fill="white"/>
<path d="M14.0039 304.006C13.5774 304.006 13.2196 303.864 12.9307 303.579C12.6417 303.295 12.4973 302.943 12.4973 302.523C12.4973 302.103 12.6417 301.751 12.9307 301.467C13.2196 301.183 13.5774 301.041 14.0039 301.041C14.4167 301.041 14.7676 301.183 15.0565 301.467C15.3454 301.751 15.4899 302.103 15.4899 302.523C15.4899 302.943 15.3454 303.295 15.0565 303.579C14.7676 303.864 14.4167 304.006 14.0039 304.006ZM15.1597 305.488V316.679H12.8068V305.488H15.1597Z" fill="white"/>
<path d="M32.015 305.306C32.9094 305.306 33.7074 305.488 34.4091 305.854C35.1246 306.22 35.6819 306.761 36.0809 307.479C36.4937 308.196 36.7001 309.063 36.7001 310.078V316.679H34.3679V310.424C34.3679 309.422 34.1133 308.657 33.6042 308.129C33.0951 307.587 32.4003 307.316 31.5197 307.316C30.6391 307.316 29.9374 307.587 29.4145 308.129C28.9054 308.657 28.6509 309.422 28.6509 310.424V316.679H26.3186V310.424C26.3186 309.422 26.0641 308.657 25.555 308.129C25.0459 307.587 24.3511 307.316 23.4705 307.316C22.5899 307.316 21.8881 307.587 21.3653 308.129C20.8562 308.657 20.6016 309.422 20.6016 310.424V316.679H18.2488V305.488H20.6016V306.768C20.9869 306.308 21.4753 305.949 22.067 305.691C22.6587 305.434 23.2916 305.306 23.9658 305.306C24.8739 305.306 25.6857 305.495 26.4012 305.874C27.1167 306.253 27.6671 306.802 28.0523 307.519C28.3963 306.842 28.9329 306.308 29.6622 305.915C30.3914 305.509 31.1757 305.306 32.015 305.306Z" fill="white"/>
<path d="M42.0469 307.133C42.4459 306.619 42.9894 306.186 43.6774 305.834C44.3653 305.482 45.1427 305.306 46.0096 305.306C47.0002 305.306 47.9015 305.549 48.7133 306.037C49.5389 306.511 50.1855 307.181 50.6534 308.047C51.1212 308.914 51.3551 309.909 51.3551 311.033C51.3551 312.157 51.1212 313.165 50.6534 314.059C50.1855 314.939 49.5389 315.63 48.7133 316.131C47.9015 316.618 47.0002 316.862 46.0096 316.862C45.1427 316.862 44.3722 316.692 43.698 316.354C43.0238 316.002 42.4734 315.569 42.0469 315.054V322H39.694V305.488H42.0469V307.133ZM48.961 311.033C48.961 310.261 48.7958 309.598 48.4656 309.043C48.1492 308.474 47.7226 308.047 47.186 307.763C46.6631 307.465 46.099 307.316 45.4936 307.316C44.9019 307.316 44.3378 307.465 43.8012 307.763C43.2783 308.061 42.8518 308.494 42.5216 309.063C42.2051 309.632 42.0469 310.302 42.0469 311.074C42.0469 311.845 42.2051 312.522 42.5216 313.104C42.8518 313.673 43.2783 314.106 43.8012 314.404C44.3378 314.702 44.9019 314.851 45.4936 314.851C46.099 314.851 46.6631 314.702 47.186 314.404C47.7226 314.093 48.1492 313.646 48.4656 313.064C48.7958 312.482 48.961 311.805 48.961 311.033Z" fill="white"/>
<path d="M56.0347 301.65V316.679H53.6818V301.65H56.0347Z" fill="white"/>
<path d="M60.3208 304.006C59.8943 304.006 59.5365 303.864 59.2476 303.579C58.9586 303.295 58.8142 302.943 58.8142 302.523C58.8142 302.103 58.9586 301.751 59.2476 301.467C59.5365 301.183 59.8943 301.041 60.3208 301.041C60.7336 301.041 61.0845 301.183 61.3734 301.467C61.6624 301.751 61.8068 302.103 61.8068 302.523C61.8068 302.943 61.6624 303.295 61.3734 303.579C61.0845 303.864 60.7336 304.006 60.3208 304.006ZM61.4766 305.488V316.679H59.1237V305.488H61.4766Z" fill="white"/>
<path d="M69.3333 307.377H67.2281V316.679H64.8546V307.377H63.5131V305.488H64.8546V304.696C64.8546 303.41 65.1986 302.476 65.8866 301.894C66.5883 301.298 67.6822 301 69.1682 301V302.929C68.4527 302.929 67.9505 303.065 67.6615 303.336C67.3726 303.593 67.2281 304.046 67.2281 304.696V305.488H69.3333V307.377Z" fill="white"/>
<path d="M72.6156 304.006C72.189 304.006 71.8313 303.864 71.5423 303.579C71.2534 303.295 71.1089 302.943 71.1089 302.523C71.1089 302.103 71.2534 301.751 71.5423 301.467C71.8313 301.183 72.189 301.041 72.6156 301.041C73.0283 301.041 73.3792 301.183 73.6681 301.467C73.9571 301.751 74.1016 302.103 74.1016 302.523C74.1016 302.943 73.9571 303.295 73.6681 303.579C73.3792 303.864 73.0283 304.006 72.6156 304.006ZM73.7713 305.488V316.679H71.4185V305.488H73.7713Z" fill="white"/>
<path d="M76.0761 311.074C76.0761 309.923 76.3101 308.914 76.7779 308.047C77.2594 307.167 77.9199 306.49 78.7592 306.016C79.5985 305.543 80.5617 305.306 81.6487 305.306C83.0246 305.306 84.1598 305.631 85.0541 306.28C85.9622 306.917 86.5745 307.831 86.891 309.022H84.3524C84.146 308.467 83.8158 308.034 83.3617 307.722C82.9077 307.411 82.3367 307.255 81.6487 307.255C80.6855 307.255 79.915 307.594 79.3371 308.271C78.773 308.934 78.4909 309.868 78.4909 311.074C78.4909 312.279 78.773 313.22 79.3371 313.897C79.915 314.574 80.6855 314.912 81.6487 314.912C83.0109 314.912 83.9121 314.323 84.3524 313.145H86.891C86.5608 314.282 85.9416 315.19 85.0335 315.867C84.1254 316.53 82.9971 316.862 81.6487 316.862C80.5617 316.862 79.5985 316.625 78.7592 316.151C77.9199 315.663 77.2594 314.986 76.7779 314.12C76.3101 313.24 76.0761 312.224 76.0761 311.074Z" fill="white"/>
<path d="M88.4515 311.033C88.4515 309.909 88.6854 308.914 89.1532 308.047C89.6348 307.181 90.2815 306.511 91.0933 306.037C91.9189 305.549 92.827 305.306 93.8176 305.306C94.712 305.306 95.4894 305.482 96.1499 305.834C96.8241 306.172 97.3607 306.599 97.7597 307.113V305.488H100.133V316.679H97.7597V315.014C97.3607 315.542 96.8172 315.982 96.1292 316.334C95.4413 316.686 94.657 316.862 93.7764 316.862C92.7995 316.862 91.9051 316.618 91.0933 316.131C90.2815 315.63 89.6348 314.939 89.1532 314.059C88.6854 313.165 88.4515 312.157 88.4515 311.033ZM97.7597 311.074C97.7597 310.302 97.5946 309.632 97.2644 309.063C96.9479 308.494 96.5282 308.061 96.0054 307.763C95.4825 307.465 94.9184 307.316 94.313 307.316C93.7076 307.316 93.1434 307.465 92.6206 307.763C92.0977 308.047 91.6712 308.474 91.341 309.043C91.0245 309.598 90.8663 310.261 90.8663 311.033C90.8663 311.805 91.0245 312.482 91.341 313.064C91.6712 313.646 92.0977 314.093 92.6206 314.404C93.1572 314.702 93.7213 314.851 94.313 314.851C94.9184 314.851 95.4825 314.702 96.0054 314.404C96.5282 314.106 96.9479 313.673 97.2644 313.104C97.5946 312.522 97.7597 311.845 97.7597 311.074Z" fill="white"/>
<path d="M108.961 305.306C109.856 305.306 110.654 305.488 111.355 305.854C112.071 306.22 112.628 306.761 113.027 307.479C113.426 308.196 113.626 309.063 113.626 310.078V316.679H111.293V310.424C111.293 309.422 111.039 308.657 110.53 308.129C110.021 307.587 109.326 307.316 108.445 307.316C107.565 307.316 106.863 307.587 106.34 308.129C105.831 308.657 105.576 309.422 105.576 310.424V316.679H103.224V305.488H105.576V306.768C105.962 306.308 106.45 305.949 107.042 305.691C107.647 305.434 108.287 305.306 108.961 305.306Z" fill="white"/>
<path d="M115.843 311.033C115.843 309.909 116.076 308.914 116.544 308.047C117.026 307.181 117.673 306.511 118.484 306.037C119.31 305.549 120.225 305.306 121.229 305.306C121.972 305.306 122.702 305.468 123.417 305.793C124.146 306.104 124.724 306.524 125.151 307.052V301.65H127.524V316.679H125.151V314.993C124.766 315.535 124.229 315.982 123.541 316.334C122.867 316.686 122.089 316.862 121.209 316.862C120.218 316.862 119.31 316.618 118.484 316.131C117.673 315.63 117.026 314.939 116.544 314.059C116.076 313.165 115.843 312.157 115.843 311.033ZM125.151 311.074C125.151 310.302 124.986 309.632 124.655 309.063C124.339 308.494 123.919 308.061 123.396 307.763C122.874 307.465 122.309 307.316 121.704 307.316C121.099 307.316 120.535 307.465 120.012 307.763C119.489 308.047 119.062 308.474 118.732 309.043C118.416 309.598 118.257 310.261 118.257 311.033C118.257 311.805 118.416 312.482 118.732 313.064C119.062 313.646 119.489 314.093 120.012 314.404C120.548 314.702 121.112 314.851 121.704 314.851C122.309 314.851 122.874 314.702 123.396 314.404C123.919 314.106 124.339 313.673 124.655 313.104C124.986 312.522 125.151 311.845 125.151 311.074Z" fill="white"/>
<path d="M135.547 316.862C134.474 316.862 133.504 316.625 132.637 316.151C131.77 315.663 131.089 314.986 130.594 314.12C130.099 313.24 129.851 312.224 129.851 311.074C129.851 309.936 130.106 308.927 130.615 308.047C131.124 307.167 131.819 306.49 132.699 306.016C133.58 305.543 134.564 305.306 135.651 305.306C136.738 305.306 137.721 305.543 138.602 306.016C139.483 306.49 140.177 307.167 140.686 308.047C141.196 308.927 141.45 309.936 141.45 311.074C141.45 312.211 141.189 313.22 140.666 314.1C140.143 314.98 139.428 315.663 138.519 316.151C137.625 316.625 136.634 316.862 135.547 316.862ZM135.547 314.851C136.153 314.851 136.717 314.709 137.24 314.425C137.776 314.14 138.21 313.714 138.54 313.145C138.87 312.576 139.035 311.886 139.035 311.074C139.035 310.261 138.877 309.577 138.561 309.022C138.244 308.454 137.825 308.027 137.302 307.743C136.779 307.458 136.215 307.316 135.609 307.316C135.004 307.316 134.44 307.458 133.917 307.743C133.408 308.027 133.002 308.454 132.699 309.022C132.396 309.577 132.245 310.261 132.245 311.074C132.245 312.279 132.555 313.213 133.174 313.876C133.807 314.526 134.598 314.851 135.547 314.851Z" fill="white"/>
<path d="M153.265 316.862C152.371 316.862 151.566 316.706 150.85 316.395C150.149 316.07 149.591 315.636 149.179 315.095C148.766 314.54 148.546 313.924 148.518 313.247H150.954C150.995 313.721 151.222 314.12 151.635 314.445C152.061 314.756 152.591 314.912 153.224 314.912C153.884 314.912 154.393 314.79 154.751 314.546C155.123 314.289 155.308 313.964 155.308 313.572C155.308 313.152 155.102 312.84 154.689 312.637C154.29 312.434 153.65 312.211 152.77 311.967C151.917 311.737 151.222 311.514 150.685 311.297C150.149 311.08 149.681 310.749 149.282 310.302C148.897 309.855 148.704 309.266 148.704 308.535C148.704 307.939 148.883 307.397 149.241 306.91C149.598 306.409 150.107 306.016 150.768 305.732C151.442 305.448 152.213 305.306 153.079 305.306C154.373 305.306 155.412 305.631 156.196 306.28C156.994 306.917 157.42 307.79 157.476 308.9H155.123C155.081 308.399 154.875 308 154.504 307.702C154.132 307.404 153.63 307.255 152.997 307.255C152.378 307.255 151.903 307.37 151.573 307.601C151.243 307.831 151.077 308.135 151.077 308.515C151.077 308.812 151.188 309.063 151.408 309.266C151.628 309.469 151.896 309.632 152.213 309.753C152.529 309.862 152.997 310.004 153.616 310.18C154.442 310.397 155.116 310.62 155.639 310.85C156.175 311.067 156.636 311.392 157.021 311.825C157.407 312.258 157.606 312.834 157.62 313.551C157.62 314.188 157.441 314.756 157.083 315.257C156.726 315.758 156.217 316.151 155.556 316.435C154.909 316.72 154.146 316.862 153.265 316.862Z" fill="white"/>
<path d="M170.461 305.488V316.679H168.108V315.359C167.737 315.819 167.248 316.185 166.643 316.456C166.051 316.713 165.418 316.841 164.744 316.841C163.85 316.841 163.045 316.659 162.329 316.293C161.628 315.927 161.07 315.386 160.658 314.668C160.259 313.951 160.059 313.084 160.059 312.069V305.488H162.391V311.723C162.391 312.725 162.646 313.497 163.155 314.039C163.664 314.567 164.359 314.831 165.24 314.831C166.12 314.831 166.815 314.567 167.324 314.039C167.847 313.497 168.108 312.725 168.108 311.723V305.488H170.461Z" fill="white"/>
<path d="M172.781 311.033C172.781 309.909 173.015 308.914 173.483 308.047C173.965 307.181 174.611 306.511 175.423 306.037C176.249 305.549 177.157 305.306 178.147 305.306C179.042 305.306 179.819 305.482 180.48 305.834C181.154 306.172 181.691 306.599 182.09 307.113V305.488H184.463V316.679H182.09V315.014C181.691 315.542 181.147 315.982 180.459 316.334C179.771 316.686 178.987 316.862 178.106 316.862C177.129 316.862 176.235 316.618 175.423 316.131C174.611 315.63 173.965 314.939 173.483 314.059C173.015 313.165 172.781 312.157 172.781 311.033ZM182.09 311.074C182.09 310.302 181.924 309.632 181.594 309.063C181.278 308.494 180.858 308.061 180.335 307.763C179.812 307.465 179.248 307.316 178.643 307.316C178.037 307.316 177.473 307.465 176.95 307.763C176.428 308.047 176.001 308.474 175.671 309.043C175.354 309.598 175.196 310.261 175.196 311.033C175.196 311.805 175.354 312.482 175.671 313.064C176.001 313.646 176.428 314.093 176.95 314.404C177.487 314.702 178.051 314.851 178.643 314.851C179.248 314.851 179.812 314.702 180.335 314.404C180.858 314.106 181.278 313.673 181.594 313.104C181.924 312.522 182.09 311.845 182.09 311.074Z" fill="white"/>
<path d="M192.13 311.033C192.13 309.909 192.364 308.914 192.832 308.047C193.314 307.181 193.96 306.511 194.772 306.037C195.598 305.549 196.506 305.306 197.497 305.306C198.391 305.306 199.168 305.482 199.829 305.834C200.503 306.172 201.04 306.599 201.439 307.113V305.488H203.812V316.679H201.439V315.014C201.04 315.542 200.496 315.982 199.808 316.334C199.12 316.686 198.336 316.862 197.455 316.862C196.478 316.862 195.584 316.618 194.772 316.131C193.96 315.63 193.314 314.939 192.832 314.059C192.364 313.165 192.13 312.157 192.13 311.033ZM201.439 311.074C201.439 310.302 201.274 309.632 200.943 309.063C200.627 308.494 200.207 308.061 199.684 307.763C199.161 307.465 198.597 307.316 197.992 307.316C197.386 307.316 196.822 307.465 196.299 307.763C195.777 308.047 195.35 308.474 195.02 309.043C194.703 309.598 194.545 310.261 194.545 311.033C194.545 311.805 194.703 312.482 195.02 313.064C195.35 313.646 195.777 314.093 196.299 314.404C196.836 314.702 197.4 314.851 197.992 314.851C198.597 314.851 199.161 314.702 199.684 314.404C200.207 314.106 200.627 313.673 200.943 313.104C201.274 312.522 201.439 311.845 201.439 311.074Z" fill="white"/>
<path d="M209.255 301.65V316.679H206.902V301.65H209.255Z" fill="white"/>
<path d="M213.541 304.006C213.115 304.006 212.757 303.864 212.468 303.579C212.179 303.295 212.035 302.943 212.035 302.523C212.035 302.103 212.179 301.751 212.468 301.467C212.757 301.183 213.115 301.041 213.541 301.041C213.954 301.041 214.305 301.183 214.594 301.467C214.883 301.751 215.027 302.103 215.027 302.523C215.027 302.943 214.883 303.295 214.594 303.579C214.305 303.864 213.954 304.006 213.541 304.006ZM214.697 305.488V316.679H212.344V305.488H214.697Z" fill="white"/>
<path d="M231.553 305.306C232.447 305.306 233.245 305.488 233.947 305.854C234.662 306.22 235.219 306.761 235.618 307.479C236.031 308.196 236.238 309.063 236.238 310.078V316.679H233.905V310.424C233.905 309.422 233.651 308.657 233.142 308.129C232.633 307.587 231.938 307.316 231.057 307.316C230.177 307.316 229.475 307.587 228.952 308.129C228.443 308.657 228.188 309.422 228.188 310.424V316.679H225.856V310.424C225.856 309.422 225.602 308.657 225.093 308.129C224.583 307.587 223.889 307.316 223.008 307.316C222.127 307.316 221.426 307.587 220.903 308.129C220.394 308.657 220.139 309.422 220.139 310.424V316.679H217.786V305.488H220.139V306.768C220.524 306.308 221.013 305.949 221.605 305.691C222.196 305.434 222.829 305.306 223.503 305.306C224.411 305.306 225.223 305.495 225.939 305.874C226.654 306.253 227.205 306.802 227.59 307.519C227.934 306.842 228.47 306.308 229.2 305.915C229.929 305.509 230.713 305.306 231.553 305.306Z" fill="white"/>
<path d="M249.654 310.809C249.654 311.229 249.627 311.608 249.572 311.947H240.883C240.952 312.84 241.289 313.558 241.894 314.1C242.499 314.641 243.242 314.912 244.123 314.912C245.389 314.912 246.283 314.391 246.806 313.348H249.345C249.001 314.377 248.375 315.223 247.467 315.887C246.572 316.537 245.458 316.862 244.123 316.862C243.036 316.862 242.059 316.625 241.192 316.151C240.339 315.663 239.665 314.986 239.17 314.12C238.688 313.24 238.447 312.224 238.447 311.074C238.447 309.923 238.681 308.914 239.149 308.047C239.631 307.167 240.298 306.49 241.151 306.016C242.018 305.543 243.009 305.306 244.123 305.306C245.196 305.306 246.153 305.536 246.992 305.996C247.831 306.456 248.485 307.106 248.953 307.946C249.42 308.772 249.654 309.726 249.654 310.809ZM247.198 310.078C247.185 309.225 246.875 308.542 246.27 308.027C245.664 307.513 244.914 307.255 244.02 307.255C243.208 307.255 242.513 307.513 241.935 308.027C241.357 308.528 241.013 309.212 240.903 310.078H247.198Z" fill="white"/>
<path d="M257.707 305.306C258.602 305.306 259.4 305.488 260.102 305.854C260.817 306.22 261.374 306.761 261.773 307.479C262.172 308.196 262.372 309.063 262.372 310.078V316.679H260.04V310.424C260.04 309.422 259.785 308.657 259.276 308.129C258.767 307.587 258.072 307.316 257.191 307.316C256.311 307.316 255.609 307.587 255.086 308.129C254.577 308.657 254.323 309.422 254.323 310.424V316.679H251.97V305.488H254.323V306.768C254.708 306.308 255.196 305.949 255.788 305.691C256.393 305.434 257.033 305.306 257.707 305.306Z" fill="white"/>
<path d="M268.118 307.377V313.572C268.118 313.991 268.214 314.296 268.407 314.485C268.613 314.662 268.957 314.75 269.439 314.75H270.884V316.679H269.026C267.967 316.679 267.155 316.435 266.591 315.948C266.027 315.46 265.745 314.668 265.745 313.572V307.377H264.403V305.488H265.745V302.706H268.118V305.488H270.884V307.377H268.118Z" fill="white"/>
<path d="M272.268 311.033C272.268 309.909 272.502 308.914 272.97 308.047C273.451 307.181 274.098 306.511 274.91 306.037C275.735 305.549 276.643 305.306 277.634 305.306C278.528 305.306 279.306 305.482 279.966 305.834C280.641 306.172 281.177 306.599 281.576 307.113V305.488H283.95V316.679H281.576V315.014C281.177 315.542 280.634 315.982 279.946 316.334C279.258 316.686 278.473 316.862 277.593 316.862C276.616 316.862 275.722 316.618 274.91 316.131C274.098 315.63 273.451 314.939 272.97 314.059C272.502 313.165 272.268 312.157 272.268 311.033ZM281.576 311.074C281.576 310.302 281.411 309.632 281.081 309.063C280.764 308.494 280.345 308.061 279.822 307.763C279.299 307.465 278.735 307.316 278.129 307.316C277.524 307.316 276.96 307.465 276.437 307.763C275.914 308.047 275.488 308.474 275.157 309.043C274.841 309.598 274.683 310.261 274.683 311.033C274.683 311.805 274.841 312.482 275.157 313.064C275.488 313.646 275.914 314.093 276.437 314.404C276.974 314.702 277.538 314.851 278.129 314.851C278.735 314.851 279.299 314.702 279.822 314.404C280.345 314.106 280.764 313.673 281.081 313.104C281.411 312.522 281.576 311.845 281.576 311.074Z" fill="white"/>
<path d="M291.828 314.912C293.19 314.912 294.092 314.323 294.532 313.145H297.071C296.768 314.174 296.224 315.02 295.44 315.684C294.67 316.334 293.7 316.713 292.53 316.821V317.654C293.328 317.654 293.975 317.837 294.47 318.202C294.965 318.581 295.213 319.109 295.213 319.786C295.213 320.463 294.965 320.998 294.47 321.391C293.975 321.797 293.349 322 292.592 322H289.868V320.538H292.117C292.502 320.538 292.791 320.484 292.984 320.375C293.177 320.267 293.273 320.071 293.273 319.786C293.273 319.502 293.177 319.306 292.984 319.197C292.791 319.089 292.502 319.035 292.117 319.035H290.982V316.801C290.046 316.692 289.221 316.388 288.505 315.887C287.79 315.372 287.233 314.709 286.834 313.897C286.448 313.071 286.256 312.13 286.256 311.074C286.256 309.923 286.49 308.914 286.957 308.047C287.439 307.167 288.099 306.49 288.939 306.016C289.778 305.543 290.741 305.306 291.828 305.306C293.204 305.306 294.339 305.631 295.234 306.28C296.142 306.917 296.754 307.831 297.071 309.022H294.532C294.326 308.467 293.995 308.034 293.541 307.722C293.087 307.411 292.516 307.255 291.828 307.255C290.865 307.255 290.095 307.594 289.517 308.271C288.953 308.934 288.67 309.868 288.67 311.074C288.67 312.279 288.953 313.22 289.517 313.897C290.095 314.574 290.865 314.912 291.828 314.912Z" fill="white"/>
<path d="M298.631 311.033C298.631 309.909 298.865 308.914 299.333 308.047C299.814 307.181 300.461 306.511 301.273 306.037C302.098 305.549 303.007 305.306 303.997 305.306C304.892 305.306 305.669 305.482 306.329 305.834C307.004 306.172 307.54 306.599 307.939 307.113V305.488H310.313V316.679H307.939V315.014C307.54 315.542 306.997 315.982 306.309 316.334C305.621 316.686 304.837 316.862 303.956 316.862C302.979 316.862 302.085 316.618 301.273 316.131C300.461 315.63 299.814 314.939 299.333 314.059C298.865 313.165 298.631 312.157 298.631 311.033ZM307.939 311.074C307.939 310.302 307.774 309.632 307.444 309.063C307.127 308.494 306.708 308.061 306.185 307.763C305.662 307.465 305.098 307.316 304.493 307.316C303.887 307.316 303.323 307.465 302.8 307.763C302.277 308.047 301.851 308.474 301.521 309.043C301.204 309.598 301.046 310.261 301.046 311.033C301.046 311.805 301.204 312.482 301.521 313.064C301.851 313.646 302.277 314.093 302.8 314.404C303.337 314.702 303.901 314.851 304.493 314.851C305.098 314.851 305.662 314.702 306.185 314.404C306.708 314.106 307.127 313.673 307.444 313.104C307.774 312.522 307.939 311.845 307.939 311.074ZM301.5 304.331C301.61 303.545 301.871 302.956 302.284 302.564C302.697 302.158 303.213 301.955 303.832 301.955C304.094 301.955 304.321 301.995 304.513 302.076C304.706 302.158 304.94 302.279 305.215 302.442C305.421 302.577 305.593 302.679 305.731 302.747C305.882 302.814 306.047 302.848 306.226 302.848C306.46 302.848 306.653 302.78 306.804 302.645C306.969 302.496 307.072 302.279 307.114 301.995H308.435C308.325 302.78 308.063 303.376 307.65 303.782C307.238 304.175 306.722 304.371 306.102 304.371C305.841 304.371 305.607 304.331 305.401 304.25C305.194 304.155 304.967 304.026 304.72 303.864C304.472 303.715 304.279 303.613 304.142 303.559C304.018 303.491 303.873 303.457 303.708 303.457C303.474 303.457 303.275 303.532 303.11 303.681C302.958 303.83 302.862 304.046 302.821 304.331H301.5Z" fill="white"/>
<path d="M318.336 316.862C317.263 316.862 316.293 316.625 315.426 316.151C314.559 315.663 313.878 314.986 313.383 314.12C312.887 313.24 312.64 312.224 312.64 311.074C312.64 309.936 312.894 308.927 313.403 308.047C313.912 307.167 314.607 306.49 315.488 306.016C316.368 305.543 317.352 305.306 318.439 305.306C319.526 305.306 320.51 305.543 321.39 306.016C322.271 306.49 322.966 307.167 323.475 308.047C323.984 308.927 324.239 309.936 324.239 311.074C324.239 312.211 323.977 313.22 323.454 314.1C322.931 314.98 322.216 315.663 321.308 316.151C320.414 316.625 319.423 316.862 318.336 316.862ZM318.336 314.851C318.941 314.851 319.505 314.709 320.028 314.425C320.565 314.14 320.998 313.714 321.329 313.145C321.659 312.576 321.824 311.886 321.824 311.074C321.824 310.261 321.666 309.577 321.349 309.022C321.033 308.454 320.613 308.027 320.09 307.743C319.567 307.458 319.003 307.316 318.398 307.316C317.792 307.316 317.228 307.458 316.705 307.743C316.196 308.027 315.79 308.454 315.488 309.022C315.185 309.577 315.034 310.261 315.034 311.074C315.034 312.279 315.343 313.213 315.962 313.876C316.595 314.526 317.386 314.851 318.336 314.851Z" fill="white"/>
<path d="M327.514 316.821C327.087 316.821 326.73 316.679 326.441 316.395C326.152 316.11 326.007 315.758 326.007 315.338C326.007 314.919 326.152 314.567 326.441 314.282C326.73 313.998 327.087 313.856 327.514 313.856C327.927 313.856 328.278 313.998 328.567 314.282C328.855 314.567 329 314.919 329 315.338C329 315.758 328.855 316.11 328.567 316.395C328.278 316.679 327.927 316.821 327.514 316.821Z" fill="white"/>
<defs>
<clipPath id="clip0_5_980">
<rect width="324" height="286" fill="white" transform="translate(5)"/>
</clipPath>
</defs>
</svg>
