<svg width="92" height="15" viewBox="0 0 92 15" fill="none" xmlns="http://www.w3.org/2000/svg">
<g clip-path="url(#clip0_4119_1251)">
<path d="M11.7127 4.79561C11.7915 4.83365 11.8843 4.79984 11.9208 4.72235L12.7463 2.99234C12.6788 2.89513 12.6085 2.80074 12.5354 2.70776L11.6382 4.58711C11.603 4.66459 11.6354 4.75757 11.7127 4.79561Z" fill="#4D585E"/>
<path d="M14.0192 7.02149C14.0192 5.65495 13.6282 4.38139 12.9546 3.30225C12.6776 4.01087 12.3302 4.87306 12.1292 5.26048C11.8099 5.88176 10.9198 5.99729 10.7018 6.02405C9.62461 8.86138 9.40242 11.4944 9.50648 13.5837C12.1446 12.575 14.0192 10.018 14.0192 7.02149ZM10.5345 11.5395C10.5345 11.5395 9.43476 8.30209 12.8703 6.53686C12.8688 6.53686 13.6507 10.4026 10.5345 11.5395Z" fill="#4D585E"/>
<path d="M5.29435 12.4651C3.96121 5.49433 6.93404 1.68352 8.5653 0.1761C8.06468 0.0619873 7.54436 0 7.00858 0C5.77951 0 4.62356 0.318389 3.61809 0.876275C6.01998 3.19798 4.452 5.80286 4.452 5.80286C2.46355 4.54057 2.74761 2.33157 3.04715 1.22848C1.91933 2.00332 1.03057 3.10077 0.510254 4.38701C1.16557 4.00382 2.44808 4.64764 3.18215 5.81272C3.86559 6.89609 3.31293 8.11611 3.22152 8.29926C3.22152 8.29926 3.22011 8.29926 3.22011 8.30067C4.3184 9.95037 4.88372 12.1326 5.1706 13.7978C5.58122 13.9091 6.00732 13.9838 6.44467 14.019L6.34482 12.351L5.29435 12.4651Z" fill="#4D585E"/>
<path d="M9.84392 4.16587C10.1083 3.56712 10.9928 2.03576 11.3149 1.48351C10.6581 0.970701 9.91002 0.570601 9.0958 0.317017C6.44922 6.11706 7.2761 12.2496 7.2761 12.2496L7.60797 14.0162C7.83297 13.9979 8.05376 13.9669 8.27173 13.9275C8.3111 10.3223 9.63439 6.97643 10.1519 5.8043C10.1308 5.77472 9.5233 4.8914 9.84392 4.16587Z" fill="#4D585E"/>
<path d="M11.0897 4.49689C11.1671 4.53351 11.2613 4.50111 11.2979 4.42363L12.271 2.3865C12.1965 2.30197 12.1205 2.21885 12.0432 2.13855L11.0166 4.28838C10.9787 4.36587 11.0124 4.46026 11.0897 4.49689Z" fill="#4D585E"/>
<path d="M10.4667 4.19827C10.544 4.2349 10.6369 4.20249 10.6748 4.1236L11.7562 1.85684C11.6761 1.78358 11.5959 1.71173 11.513 1.6427L10.3936 3.98836C10.3556 4.06725 10.3894 4.16023 10.4667 4.19827Z" fill="#4D585E"/>
<path d="M0.562504 7.47085C0.298127 7.05103 0.132188 6.59176 0.0548441 6.15503C0.0196876 6.43961 0 6.72841 0 7.02144C0 9.85455 1.67485 12.2932 4.08659 13.4033C3.93893 11.114 3.23861 9.41077 2.81111 8.5669C2.62267 8.57113 1.25016 8.56267 0.562504 7.47085ZM3.1008 11.4099C1.35563 11.1619 1.33595 9.06702 1.33595 9.06702C3.31596 9.6066 3.1008 11.4099 3.1008 11.4099Z" fill="#4D585E"/>
<path d="M1.96182 9.78414C1.83526 9.6334 1.70447 9.48547 1.56104 9.34741C1.65385 9.52351 1.75791 9.69116 1.86619 9.85599C1.97448 10.0208 2.08979 10.18 2.20651 10.3392C2.32604 10.4956 2.44557 10.652 2.57354 10.8013C2.7001 10.952 2.83089 11.1 2.97433 11.238C2.88151 11.0619 2.77745 10.8943 2.66917 10.7294C2.56089 10.5646 2.44557 10.4054 2.33026 10.2462C2.20932 10.0913 2.08838 9.93488 1.96182 9.78414Z" fill="#4D585E"/>
<path d="M3.56076 2.27946C3.61701 2.63589 3.68873 2.9895 3.76467 3.3417C3.84483 3.69249 3.9292 4.04328 4.02905 4.38985C4.12748 4.73782 4.23436 5.08298 4.36936 5.4225C4.34827 5.05762 4.30045 4.69978 4.2428 4.34336C4.18655 3.98693 4.11483 3.63332 4.0403 3.28112C3.96014 2.93033 3.87576 2.57954 3.77733 2.23156C3.67889 1.88359 3.57201 1.53843 3.43701 1.20032C3.45529 1.5652 3.50311 1.92303 3.56076 2.27946Z" fill="#4D585E"/>
<path d="M11.5032 9.09801C11.3499 9.43612 11.2009 9.77423 11.0659 10.1208C10.9295 10.466 10.8029 10.8153 10.7017 11.1774C10.9112 10.8661 11.0954 10.5434 11.2698 10.2152C11.4456 9.88834 11.6073 9.55446 11.7648 9.21916C11.9181 8.88246 12.0671 8.54294 12.2021 8.19637C12.3385 7.85122 12.4651 7.50183 12.5664 7.13977C12.3568 7.45112 12.1726 7.77373 11.9982 8.10057C11.821 8.42882 11.6607 8.76271 11.5032 9.09801Z" fill="#4D585E"/>
</g>
<path d="M24.437 2.53379V4.38747H20.5682V6.3887H23.464V8.18705H20.5682V12.0281H18.2534V2.52917H24.437V2.53379Z" fill="#4D585E"/>
<path d="M27.5267 11.6685C26.9365 11.3549 26.4708 10.903 26.1342 10.3174C25.7976 9.73181 25.627 9.04475 25.627 8.26085C25.627 7.48618 25.7976 6.80373 26.1434 6.20889C26.4846 5.61867 26.955 5.16678 27.5498 4.84861C28.1446 4.53044 28.8133 4.37366 29.551 4.37366C30.2888 4.37366 30.9574 4.53044 31.5523 4.84861C32.1471 5.16678 32.6174 5.61867 32.9587 6.20889C33.2999 6.79912 33.4751 7.48157 33.4751 8.26085C33.4751 9.03552 33.2999 9.71797 32.9541 10.3082C32.6082 10.8984 32.1333 11.3549 31.5338 11.6685C30.9344 11.9867 30.2658 12.1434 29.5234 12.1434C28.781 12.1434 28.117 11.9867 27.5267 11.6685ZM30.6485 9.65342C30.962 9.33064 31.1142 8.86491 31.1142 8.26085C31.1142 7.65679 30.962 7.19107 30.6623 6.86829C30.3626 6.54551 29.9891 6.37951 29.5464 6.37951C29.0945 6.37951 28.721 6.5409 28.4213 6.85907C28.1216 7.17723 27.974 7.64757 27.974 8.26085C27.974 8.86491 28.1216 9.33064 28.4167 9.65342C28.7118 9.9762 29.0761 10.1422 29.5188 10.1422C29.9614 10.1422 30.3395 9.9762 30.6485 9.65342Z" fill="#4D585E"/>
<path d="M36.3295 11.6685C35.7393 11.3549 35.2735 10.903 34.9369 10.3174C34.6003 9.73181 34.4297 9.04475 34.4297 8.26085C34.4297 7.48618 34.6003 6.80373 34.9461 6.20889C35.2874 5.61867 35.7577 5.16678 36.3525 4.84861C36.9474 4.53044 37.616 4.37366 38.3538 4.37366C39.0916 4.37366 39.7602 4.53044 40.355 4.84861C40.9498 5.16678 41.4202 5.61867 41.7614 6.20889C42.1026 6.79912 42.2779 7.48157 42.2779 8.26085C42.2779 9.03552 42.1026 9.71797 41.7568 10.3082C41.411 10.8984 40.936 11.3549 40.3366 11.6685C39.7371 11.9867 39.0685 12.1434 38.3261 12.1434C37.5837 12.1434 36.9197 11.982 36.3295 11.6685ZM39.4558 9.65342C39.7694 9.33064 39.9216 8.86491 39.9216 8.26085C39.9216 7.65679 39.7694 7.19107 39.4697 6.86829C39.1699 6.54551 38.7964 6.37951 38.3538 6.37951C37.9019 6.37951 37.5284 6.5409 37.2287 6.85907C36.9289 7.17723 36.7814 7.64757 36.7814 8.26085C36.7814 8.86491 36.9289 9.33064 37.224 9.65342C37.5192 9.9762 37.8834 10.1422 38.3261 10.1422C38.7688 10.1376 39.1423 9.9762 39.4558 9.65342Z" fill="#4D585E"/>
<path d="M43.4849 6.19979C43.78 5.61418 44.1766 5.16228 44.6838 4.84873C45.1911 4.53056 45.7536 4.37378 46.3761 4.37378C46.8695 4.37378 47.326 4.47522 47.7364 4.68734C48.1468 4.89484 48.4696 5.17612 48.7048 5.52656V2.02209H51.0195V12.0329H48.7048V10.9493C48.488 11.3089 48.1791 11.5994 47.7779 11.8162C47.3767 12.0329 46.911 12.1389 46.3761 12.1389C45.7536 12.1389 45.1911 11.9776 44.6838 11.6594C44.1766 11.3412 43.78 10.8847 43.4849 10.2945C43.1898 9.70426 43.0469 9.02181 43.0469 8.24253C43.0469 7.46786 43.1944 6.79002 43.4849 6.19979ZM48.2206 6.89146C47.9024 6.55946 47.5105 6.38885 47.0494 6.38885C46.5882 6.38885 46.2009 6.55485 45.8781 6.88224C45.5599 7.21424 45.3986 7.66614 45.3986 8.24253C45.3986 8.81892 45.5599 9.27543 45.8781 9.61665C46.1963 9.95326 46.5882 10.1239 47.0494 10.1239C47.5105 10.1239 47.8978 9.95787 48.2206 9.62587C48.5387 9.29387 48.7001 8.83737 48.7001 8.26097C48.7001 7.67997 48.5434 7.22808 48.2206 6.89146Z" fill="#4D585E"/>
<path d="M52.8595 3.34096C52.6013 3.10118 52.4722 2.80607 52.4722 2.45562C52.4722 2.09595 52.6013 1.79623 52.8595 1.55645C53.1177 1.31667 53.4497 1.19678 53.8555 1.19678C54.2521 1.19678 54.5795 1.31667 54.8377 1.55645C55.0959 1.79623 55.225 2.09595 55.225 2.45562C55.225 2.80607 55.0959 3.10118 54.8377 3.34096C54.5795 3.58074 54.2521 3.70063 53.8555 3.70063C53.4497 3.70063 53.1177 3.58074 52.8595 3.34096ZM55.0083 4.48452V12.033H52.6935V4.48452H55.0083Z" fill="#4D585E"/>
<path d="M63.761 8.81419H58.5273C58.5642 9.28453 58.7164 9.6442 58.9792 9.88859C59.2466 10.1376 59.5694 10.2621 59.9614 10.2621C60.5378 10.2621 60.9389 10.0177 61.1649 9.53353H63.6272C63.5027 10.0269 63.2722 10.4742 62.9448 10.8708C62.6174 11.2673 62.2024 11.5809 61.709 11.8022C61.211 12.0282 60.6577 12.1388 60.0444 12.1388C59.3066 12.1388 58.6472 11.982 58.0708 11.6639C57.4944 11.3503 57.0425 10.8984 56.7197 10.3128C56.397 9.7272 56.231 9.04014 56.231 8.25624C56.231 7.47235 56.3924 6.78529 56.7105 6.19967C57.0287 5.61406 57.4806 5.16216 58.057 4.84861C58.6334 4.53044 59.2974 4.37366 60.0444 4.37366C60.7775 4.37366 61.4231 4.52582 61.9949 4.83477C62.5621 5.13911 63.0047 5.57717 63.3275 6.14895C63.6503 6.72073 63.8071 7.38012 63.8071 8.13635C63.8025 8.35307 63.7886 8.57902 63.761 8.81419ZM61.4323 7.52768C61.4323 7.13112 61.2986 6.81756 61.0266 6.5824C60.7545 6.34723 60.4179 6.23195 60.0121 6.23195C59.6248 6.23195 59.2974 6.34723 59.0299 6.57317C58.7625 6.79912 58.6011 7.11729 58.5365 7.53229H61.4323V7.52768Z" fill="#4D585E"/>
<path d="M73.247 2.53369V12.0326H70.9322V8.1224H67.3309V12.0326H65.0161V2.53369H67.3309V6.25488H70.9322V2.53369H73.247Z" fill="#7E7E7E"/>
<path d="M82.3672 4.48447V12.0329H80.0524V11.0046C79.8172 11.3366 79.4991 11.6087 79.0979 11.8116C78.6967 12.0145 78.254 12.1159 77.7653 12.1159C77.1889 12.1159 76.677 11.9868 76.2344 11.7286C75.7917 11.4704 75.4505 11.0968 75.2061 10.6127C74.9617 10.1239 74.8418 9.55212 74.8418 8.89272V4.47986H77.1428V8.57917C77.1428 9.08178 77.2719 9.47834 77.5347 9.75501C77.7975 10.0363 78.148 10.1746 78.5907 10.1746C79.0426 10.1746 79.3976 10.0363 79.6604 9.75501C79.9233 9.47373 80.0524 9.08178 80.0524 8.57917V4.47986H82.3672V4.48447Z" fill="#7E7E7E"/>
<path d="M87.278 4.70117C87.6838 4.48445 88.1495 4.37839 88.6705 4.37839C89.2931 4.37839 89.8556 4.53517 90.3628 4.85334C90.8655 5.17151 91.2666 5.61879 91.5617 6.2044C91.8569 6.79002 91.9998 7.47247 91.9998 8.24714C91.9998 9.02181 91.8522 9.70887 91.5617 10.2991C91.2666 10.8893 90.8701 11.3458 90.3628 11.664C89.8556 11.9822 89.2931 12.1436 88.6705 12.1436C88.1357 12.1436 87.6745 12.0375 87.278 11.8254C86.8814 11.6133 86.5679 11.332 86.3465 10.9815V12.0375H84.0317V2.02209H86.3465V5.55423C86.5586 5.19917 86.8722 4.91789 87.278 4.70117ZM89.1639 6.88685C88.8458 6.55946 88.4492 6.39346 87.9789 6.39346C87.5178 6.39346 87.1304 6.55946 86.8076 6.89607C86.4895 7.22808 86.3281 7.68458 86.3281 8.26097C86.3281 8.83737 86.4895 9.29387 86.8076 9.62587C87.1258 9.95788 87.5178 10.1239 87.9789 10.1239C88.44 10.1239 88.8319 9.95326 89.1547 9.61665C89.4775 9.27543 89.6435 8.81892 89.6435 8.24253C89.6435 7.66614 89.4821 7.21424 89.1639 6.88685Z" fill="#7E7E7E"/>
<defs>
<clipPath id="clip0_4119_1251">
<rect width="14.019" height="14.019" fill="white"/>
</clipPath>
</defs>
</svg>
