<svg width="295" height="128" viewBox="0 0 295 128" fill="none" xmlns="http://www.w3.org/2000/svg">
<path d="M134.344 92.077C133.831 92.077 133.369 91.989 132.958 91.813C132.547 91.6297 132.225 91.373 131.99 91.043C131.755 90.713 131.638 90.328 131.638 89.888H132.98C133.009 90.218 133.138 90.4893 133.365 90.702C133.6 90.9147 133.926 91.021 134.344 91.021C134.777 91.021 135.114 90.9183 135.356 90.713C135.598 90.5003 135.719 90.229 135.719 89.899C135.719 89.6423 135.642 89.4333 135.488 89.272C135.341 89.1107 135.154 88.986 134.927 88.898C134.707 88.81 134.399 88.7147 134.003 88.612C133.504 88.48 133.097 88.348 132.782 88.216C132.474 88.0767 132.21 87.864 131.99 87.578C131.77 87.292 131.66 86.9107 131.66 86.434C131.66 85.994 131.77 85.609 131.99 85.279C132.21 84.949 132.518 84.696 132.914 84.52C133.31 84.344 133.768 84.256 134.289 84.256C135.03 84.256 135.635 84.443 136.104 84.817C136.581 85.1837 136.845 85.6897 136.896 86.335H135.51C135.488 86.0563 135.356 85.818 135.114 85.62C134.872 85.422 134.553 85.323 134.157 85.323C133.798 85.323 133.504 85.4147 133.277 85.598C133.05 85.7813 132.936 86.0453 132.936 86.39C132.936 86.6247 133.006 86.819 133.145 86.973C133.292 87.1197 133.475 87.237 133.695 87.325C133.915 87.413 134.216 87.5083 134.597 87.611C135.103 87.7503 135.514 87.8897 135.829 88.029C136.152 88.1683 136.423 88.3847 136.643 88.678C136.87 88.964 136.984 89.349 136.984 89.833C136.984 90.2217 136.878 90.5883 136.665 90.933C136.46 91.2777 136.155 91.5563 135.752 91.769C135.356 91.9743 134.887 92.077 134.344 92.077ZM139.102 85.136C138.874 85.136 138.684 85.059 138.53 84.905C138.376 84.751 138.299 84.5603 138.299 84.333C138.299 84.1057 138.376 83.915 138.53 83.761C138.684 83.607 138.874 83.53 139.102 83.53C139.322 83.53 139.509 83.607 139.663 83.761C139.817 83.915 139.894 84.1057 139.894 84.333C139.894 84.5603 139.817 84.751 139.663 84.905C139.509 85.059 139.322 85.136 139.102 85.136ZM139.718 85.939V92H138.464V85.939H139.718ZM148.701 85.84C149.178 85.84 149.603 85.939 149.977 86.137C150.358 86.335 150.655 86.6283 150.868 87.017C151.088 87.4057 151.198 87.875 151.198 88.425V92H149.955V88.612C149.955 88.0693 149.819 87.655 149.548 87.369C149.277 87.0757 148.906 86.929 148.437 86.929C147.968 86.929 147.594 87.0757 147.315 87.369C147.044 87.655 146.908 88.0693 146.908 88.612V92H145.665V88.612C145.665 88.0693 145.529 87.655 145.258 87.369C144.987 87.0757 144.616 86.929 144.147 86.929C143.678 86.929 143.304 87.0757 143.025 87.369C142.754 87.655 142.618 88.0693 142.618 88.612V92H141.364V85.939H142.618V86.632C142.823 86.3827 143.084 86.1883 143.399 86.049C143.714 85.9097 144.052 85.84 144.411 85.84C144.895 85.84 145.328 85.9427 145.709 86.148C146.09 86.3533 146.384 86.6503 146.589 87.039C146.772 86.6723 147.058 86.3827 147.447 86.17C147.836 85.95 148.254 85.84 148.701 85.84ZM154.048 86.83C154.26 86.5513 154.55 86.3167 154.917 86.126C155.283 85.9353 155.698 85.84 156.16 85.84C156.688 85.84 157.168 85.972 157.601 86.236C158.041 86.4927 158.385 86.8557 158.635 87.325C158.884 87.7943 159.009 88.3333 159.009 88.942C159.009 89.5507 158.884 90.097 158.635 90.581C158.385 91.0577 158.041 91.4317 157.601 91.703C157.168 91.967 156.688 92.099 156.16 92.099C155.698 92.099 155.287 92.0073 154.928 91.824C154.568 91.6333 154.275 91.3987 154.048 91.12V94.882H152.794V85.939H154.048V86.83ZM157.733 88.942C157.733 88.524 157.645 88.1647 157.469 87.864C157.3 87.556 157.073 87.325 156.787 87.171C156.508 87.0097 156.207 86.929 155.885 86.929C155.569 86.929 155.269 87.0097 154.983 87.171C154.704 87.3323 154.477 87.567 154.301 87.875C154.132 88.183 154.048 88.546 154.048 88.964C154.048 89.382 154.132 89.7487 154.301 90.064C154.477 90.372 154.704 90.6067 154.983 90.768C155.269 90.9293 155.569 91.01 155.885 91.01C156.207 91.01 156.508 90.9293 156.787 90.768C157.073 90.5993 157.3 90.3573 157.469 90.042C157.645 89.7267 157.733 89.36 157.733 88.942ZM161.503 83.86V92H160.249V83.86H161.503ZM163.787 85.136C163.56 85.136 163.369 85.059 163.215 84.905C163.061 84.751 162.984 84.5603 162.984 84.333C162.984 84.1057 163.061 83.915 163.215 83.761C163.369 83.607 163.56 83.53 163.787 83.53C164.007 83.53 164.194 83.607 164.348 83.761C164.502 83.915 164.579 84.1057 164.579 84.333C164.579 84.5603 164.502 84.751 164.348 84.905C164.194 85.059 164.007 85.136 163.787 85.136ZM164.403 85.939V92H163.149V85.939H164.403ZM168.591 86.962H167.469V92H166.204V86.962H165.489V85.939H166.204V85.51C166.204 84.8133 166.387 84.3073 166.754 83.992C167.128 83.6693 167.711 83.508 168.503 83.508V84.553C168.121 84.553 167.854 84.6263 167.7 84.773C167.546 84.9123 167.469 85.158 167.469 85.51V85.939H168.591V86.962ZM170.34 85.136C170.113 85.136 169.922 85.059 169.768 84.905C169.614 84.751 169.537 84.5603 169.537 84.333C169.537 84.1057 169.614 83.915 169.768 83.761C169.922 83.607 170.113 83.53 170.34 83.53C170.56 83.53 170.747 83.607 170.901 83.761C171.055 83.915 171.132 84.1057 171.132 84.333C171.132 84.5603 171.055 84.751 170.901 84.905C170.747 85.059 170.56 85.136 170.34 85.136ZM170.956 85.939V92H169.702V85.939H170.956ZM172.184 88.964C172.184 88.3407 172.309 87.7943 172.558 87.325C172.815 86.8483 173.167 86.4817 173.614 86.225C174.062 85.9683 174.575 85.84 175.154 85.84C175.888 85.84 176.493 86.016 176.969 86.368C177.453 86.7127 177.78 87.2077 177.948 87.853H176.595C176.485 87.5523 176.309 87.3177 176.067 87.149C175.825 86.9803 175.521 86.896 175.154 86.896C174.641 86.896 174.23 87.0793 173.922 87.446C173.622 87.8053 173.471 88.3113 173.471 88.964C173.471 89.6167 173.622 90.1263 173.922 90.493C174.23 90.8597 174.641 91.043 175.154 91.043C175.88 91.043 176.361 90.724 176.595 90.086H177.948C177.772 90.702 177.442 91.1933 176.958 91.56C176.474 91.9193 175.873 92.099 175.154 92.099C174.575 92.099 174.062 91.9707 173.614 91.714C173.167 91.45 172.815 91.0833 172.558 90.614C172.309 90.1373 172.184 89.5873 172.184 88.964ZM178.78 88.942C178.78 88.3333 178.905 87.7943 179.154 87.325C179.411 86.8557 179.755 86.4927 180.188 86.236C180.628 85.972 181.112 85.84 181.64 85.84C182.117 85.84 182.531 85.9353 182.883 86.126C183.242 86.3093 183.528 86.5403 183.741 86.819V85.939H185.006V92H183.741V91.098C183.528 91.384 183.239 91.6223 182.872 91.813C182.505 92.0037 182.087 92.099 181.618 92.099C181.097 92.099 180.621 91.967 180.188 91.703C179.755 91.4317 179.411 91.0577 179.154 90.581C178.905 90.097 178.78 89.5507 178.78 88.942ZM183.741 88.964C183.741 88.546 183.653 88.183 183.477 87.875C183.308 87.567 183.085 87.3323 182.806 87.171C182.527 87.0097 182.227 86.929 181.904 86.929C181.581 86.929 181.281 87.0097 181.002 87.171C180.723 87.325 180.496 87.556 180.32 87.864C180.151 88.1647 180.067 88.524 180.067 88.942C180.067 89.36 180.151 89.7267 180.32 90.042C180.496 90.3573 180.723 90.5993 181.002 90.768C181.288 90.9293 181.589 91.01 181.904 91.01C182.227 91.01 182.527 90.9293 182.806 90.768C183.085 90.6067 183.308 90.372 183.477 90.064C183.653 89.7487 183.741 89.382 183.741 88.964ZM189.711 85.84C190.188 85.84 190.613 85.939 190.987 86.137C191.368 86.335 191.665 86.6283 191.878 87.017C192.091 87.4057 192.197 87.875 192.197 88.425V92H190.954V88.612C190.954 88.0693 190.818 87.655 190.547 87.369C190.276 87.0757 189.905 86.929 189.436 86.929C188.967 86.929 188.593 87.0757 188.314 87.369C188.043 87.655 187.907 88.0693 187.907 88.612V92H186.653V85.939H187.907V86.632C188.112 86.3827 188.373 86.1883 188.688 86.049C189.011 85.9097 189.352 85.84 189.711 85.84ZM193.379 88.942C193.379 88.3333 193.503 87.7943 193.753 87.325C194.009 86.8557 194.354 86.4927 194.787 86.236C195.227 85.972 195.714 85.84 196.25 85.84C196.646 85.84 197.034 85.928 197.416 86.104C197.804 86.2727 198.112 86.5 198.34 86.786V83.86H199.605V92H198.34V91.087C198.134 91.3803 197.848 91.6223 197.482 91.813C197.122 92.0037 196.708 92.099 196.239 92.099C195.711 92.099 195.227 91.967 194.787 91.703C194.354 91.4317 194.009 91.0577 193.753 90.581C193.503 90.097 193.379 89.5507 193.379 88.942ZM198.34 88.964C198.34 88.546 198.252 88.183 198.076 87.875C197.907 87.567 197.683 87.3323 197.405 87.171C197.126 87.0097 196.825 86.929 196.503 86.929C196.18 86.929 195.879 87.0097 195.601 87.171C195.322 87.325 195.095 87.556 194.919 87.864C194.75 88.1647 194.666 88.524 194.666 88.942C194.666 89.36 194.75 89.7267 194.919 90.042C195.095 90.3573 195.322 90.5993 195.601 90.768C195.887 90.9293 196.187 91.01 196.503 91.01C196.825 91.01 197.126 90.9293 197.405 90.768C197.683 90.6067 197.907 90.372 198.076 90.064C198.252 89.7487 198.34 89.382 198.34 88.964ZM203.881 92.099C203.309 92.099 202.792 91.9707 202.33 91.714C201.868 91.45 201.505 91.0833 201.241 90.614C200.977 90.1373 200.845 89.5873 200.845 88.964C200.845 88.348 200.98 87.8017 201.252 87.325C201.523 86.8483 201.893 86.4817 202.363 86.225C202.832 85.9683 203.356 85.84 203.936 85.84C204.515 85.84 205.039 85.9683 205.509 86.225C205.978 86.4817 206.348 86.8483 206.62 87.325C206.891 87.8017 207.027 88.348 207.027 88.964C207.027 89.58 206.887 90.1263 206.609 90.603C206.33 91.0797 205.949 91.45 205.465 91.714C204.988 91.9707 204.46 92.099 203.881 92.099ZM203.881 91.01C204.203 91.01 204.504 90.933 204.783 90.779C205.069 90.625 205.3 90.394 205.476 90.086C205.652 89.778 205.74 89.404 205.74 88.964C205.74 88.524 205.655 88.1537 205.487 87.853C205.318 87.545 205.094 87.314 204.816 87.16C204.537 87.006 204.236 86.929 203.914 86.929C203.591 86.929 203.29 87.006 203.012 87.16C202.74 87.314 202.524 87.545 202.363 87.853C202.201 88.1537 202.121 88.524 202.121 88.964C202.121 89.6167 202.286 90.1227 202.616 90.482C202.953 90.834 203.375 91.01 203.881 91.01ZM213.324 92.099C212.847 92.099 212.418 92.0147 212.037 91.846C211.663 91.67 211.366 91.4353 211.146 91.142C210.926 90.8413 210.808 90.5077 210.794 90.141H212.092C212.114 90.3977 212.235 90.614 212.455 90.79C212.682 90.9587 212.964 91.043 213.302 91.043C213.654 91.043 213.925 90.977 214.116 90.845C214.314 90.7057 214.413 90.5297 214.413 90.317C214.413 90.0897 214.303 89.921 214.083 89.811C213.87 89.701 213.529 89.58 213.06 89.448C212.605 89.3233 212.235 89.2023 211.949 89.085C211.663 88.9677 211.413 88.788 211.201 88.546C210.995 88.304 210.893 87.985 210.893 87.589C210.893 87.2663 210.988 86.973 211.179 86.709C211.369 86.4377 211.641 86.225 211.993 86.071C212.352 85.917 212.763 85.84 213.225 85.84C213.914 85.84 214.468 86.016 214.886 86.368C215.311 86.7127 215.538 87.1857 215.568 87.787H214.314C214.292 87.5157 214.182 87.2993 213.984 87.138C213.786 86.9767 213.518 86.896 213.181 86.896C212.851 86.896 212.598 86.9583 212.422 87.083C212.246 87.2077 212.158 87.3727 212.158 87.578C212.158 87.7393 212.216 87.875 212.334 87.985C212.451 88.095 212.594 88.183 212.763 88.249C212.931 88.3077 213.181 88.3847 213.511 88.48C213.951 88.5973 214.31 88.7183 214.589 88.843C214.875 88.9603 215.12 89.1363 215.326 89.371C215.531 89.6057 215.637 89.9173 215.645 90.306C215.645 90.6507 215.549 90.9587 215.359 91.23C215.168 91.5013 214.897 91.714 214.545 91.868C214.2 92.022 213.793 92.099 213.324 92.099ZM222.489 85.939V92H221.235V91.285C221.037 91.5343 220.776 91.7323 220.454 91.879C220.138 92.0183 219.801 92.088 219.442 92.088C218.965 92.088 218.536 91.989 218.155 91.791C217.781 91.593 217.484 91.2997 217.264 90.911C217.051 90.5223 216.945 90.053 216.945 89.503V85.939H218.188V89.316C218.188 89.8587 218.323 90.2767 218.595 90.57C218.866 90.856 219.236 90.999 219.706 90.999C220.175 90.999 220.545 90.856 220.817 90.57C221.095 90.2767 221.235 89.8587 221.235 89.316V85.939H222.489ZM223.725 88.942C223.725 88.3333 223.85 87.7943 224.099 87.325C224.356 86.8557 224.701 86.4927 225.133 86.236C225.573 85.972 226.057 85.84 226.585 85.84C227.062 85.84 227.476 85.9353 227.828 86.126C228.188 86.3093 228.474 86.5403 228.686 86.819V85.939H229.951V92H228.686V91.098C228.474 91.384 228.184 91.6223 227.817 91.813C227.451 92.0037 227.033 92.099 226.563 92.099C226.043 92.099 225.566 91.967 225.133 91.703C224.701 91.4317 224.356 91.0577 224.099 90.581C223.85 90.097 223.725 89.5507 223.725 88.942ZM228.686 88.964C228.686 88.546 228.598 88.183 228.422 87.875C228.254 87.567 228.03 87.3323 227.751 87.171C227.473 87.0097 227.172 86.929 226.849 86.929C226.527 86.929 226.226 87.0097 225.947 87.171C225.669 87.325 225.441 87.556 225.265 87.864C225.097 88.1647 225.012 88.524 225.012 88.942C225.012 89.36 225.097 89.7267 225.265 90.042C225.441 90.3573 225.669 90.5993 225.947 90.768C226.233 90.9293 226.534 91.01 226.849 91.01C227.172 91.01 227.473 90.9293 227.751 90.768C228.03 90.6067 228.254 90.372 228.422 90.064C228.598 89.7487 228.686 89.382 228.686 88.964ZM233.798 92.099C233.322 92.099 232.893 92.0147 232.511 91.846C232.137 91.67 231.84 91.4353 231.62 91.142C231.4 90.8413 231.283 90.5077 231.268 90.141H232.566C232.588 90.3977 232.709 90.614 232.929 90.79C233.157 90.9587 233.439 91.043 233.776 91.043C234.128 91.043 234.4 90.977 234.59 90.845C234.788 90.7057 234.887 90.5297 234.887 90.317C234.887 90.0897 234.777 89.921 234.557 89.811C234.345 89.701 234.004 89.58 233.534 89.448C233.08 89.3233 232.709 89.2023 232.423 89.085C232.137 88.9677 231.888 88.788 231.675 88.546C231.47 88.304 231.367 87.985 231.367 87.589C231.367 87.2663 231.463 86.973 231.653 86.709C231.844 86.4377 232.115 86.225 232.467 86.071C232.827 85.917 233.237 85.84 233.699 85.84C234.389 85.84 234.942 86.016 235.36 86.368C235.786 86.7127 236.013 87.1857 236.042 87.787H234.788C234.766 87.5157 234.656 87.2993 234.458 87.138C234.26 86.9767 233.993 86.896 233.655 86.896C233.325 86.896 233.072 86.9583 232.896 87.083C232.72 87.2077 232.632 87.3727 232.632 87.578C232.632 87.7393 232.691 87.875 232.808 87.985C232.926 88.095 233.069 88.183 233.237 88.249C233.406 88.3077 233.655 88.3847 233.985 88.48C234.425 88.5973 234.785 88.7183 235.063 88.843C235.349 88.9603 235.595 89.1363 235.8 89.371C236.006 89.6057 236.112 89.9173 236.119 90.306C236.119 90.6507 236.024 90.9587 235.833 91.23C235.643 91.5013 235.371 91.714 235.019 91.868C234.675 92.022 234.268 92.099 233.798 92.099ZM241.586 86.819C241.769 86.511 242.011 86.2727 242.312 86.104C242.62 85.928 242.983 85.84 243.401 85.84V87.138H243.082C242.591 87.138 242.217 87.2627 241.96 87.512C241.711 87.7613 241.586 88.194 241.586 88.81V92H240.332V85.939H241.586V86.819ZM250.109 88.821C250.109 89.0483 250.094 89.2537 250.065 89.437H245.434C245.47 89.921 245.65 90.3097 245.973 90.603C246.295 90.8963 246.691 91.043 247.161 91.043C247.835 91.043 248.312 90.7607 248.591 90.196H249.944C249.76 90.7533 249.427 91.2117 248.943 91.571C248.466 91.923 247.872 92.099 247.161 92.099C246.581 92.099 246.061 91.9707 245.599 91.714C245.144 91.45 244.785 91.0833 244.521 90.614C244.264 90.1373 244.136 89.5873 244.136 88.964C244.136 88.3407 244.26 87.7943 244.51 87.325C244.766 86.8483 245.122 86.4817 245.577 86.225C246.039 85.9683 246.567 85.84 247.161 85.84C247.733 85.84 248.242 85.9647 248.69 86.214C249.137 86.4633 249.485 86.8153 249.735 87.27C249.984 87.7173 250.109 88.2343 250.109 88.821ZM248.8 88.425C248.792 87.963 248.627 87.5927 248.305 87.314C247.982 87.0353 247.582 86.896 247.106 86.896C246.673 86.896 246.303 87.0353 245.995 87.314C245.687 87.5853 245.503 87.9557 245.445 88.425H248.8ZM253.884 86.962H252.762V92H251.497V86.962H250.782V85.939H251.497V85.51C251.497 84.8133 251.68 84.3073 252.047 83.992C252.421 83.6693 253.004 83.508 253.796 83.508V84.553C253.414 84.553 253.147 84.6263 252.993 84.773C252.839 84.9123 252.762 85.158 252.762 85.51V85.939H253.884V86.962ZM260.55 88.821C260.55 89.0483 260.535 89.2537 260.506 89.437H255.875C255.912 89.921 256.091 90.3097 256.414 90.603C256.737 90.8963 257.133 91.043 257.602 91.043C258.277 91.043 258.753 90.7607 259.032 90.196H260.385C260.202 90.7533 259.868 91.2117 259.384 91.571C258.907 91.923 258.313 92.099 257.602 92.099C257.023 92.099 256.502 91.9707 256.04 91.714C255.585 91.45 255.226 91.0833 254.962 90.614C254.705 90.1373 254.577 89.5873 254.577 88.964C254.577 88.3407 254.702 87.7943 254.951 87.325C255.208 86.8483 255.563 86.4817 256.018 86.225C256.48 85.9683 257.008 85.84 257.602 85.84C258.174 85.84 258.684 85.9647 259.131 86.214C259.578 86.4633 259.927 86.8153 260.176 87.27C260.425 87.7173 260.55 88.2343 260.55 88.821ZM259.241 88.425C259.234 87.963 259.069 87.5927 258.746 87.314C258.423 87.0353 258.024 86.896 257.547 86.896C257.114 86.896 256.744 87.0353 256.436 87.314C256.128 87.5853 255.945 87.9557 255.886 88.425H259.241ZM262.422 85.136C262.195 85.136 262.004 85.059 261.85 84.905C261.696 84.751 261.619 84.5603 261.619 84.333C261.619 84.1057 261.696 83.915 261.85 83.761C262.004 83.607 262.195 83.53 262.422 83.53C262.642 83.53 262.829 83.607 262.983 83.761C263.137 83.915 263.214 84.1057 263.214 84.333C263.214 84.5603 263.137 84.751 262.983 84.905C262.829 85.059 262.642 85.136 262.422 85.136ZM263.038 85.939V92H261.784V85.939H263.038ZM267.236 91.043C267.962 91.043 268.443 90.724 268.677 90.086H270.03C269.869 90.6433 269.579 91.1017 269.161 91.461C268.751 91.813 268.234 92.0183 267.61 92.077V92.528C268.036 92.528 268.38 92.627 268.644 92.825C268.908 93.0303 269.04 93.3163 269.04 93.683C269.04 94.0497 268.908 94.3393 268.644 94.552C268.38 94.772 268.047 94.882 267.643 94.882H266.191V94.09H267.39C267.596 94.09 267.75 94.0607 267.852 94.002C267.955 93.9433 268.006 93.837 268.006 93.683C268.006 93.529 267.955 93.4227 267.852 93.364C267.75 93.3053 267.596 93.276 267.39 93.276H266.785V92.066C266.287 92.0073 265.847 91.8423 265.465 91.571C265.084 91.2923 264.787 90.933 264.574 90.493C264.369 90.0457 264.266 89.536 264.266 88.964C264.266 88.3407 264.391 87.7943 264.64 87.325C264.897 86.8483 265.249 86.4817 265.696 86.225C266.144 85.9683 266.657 85.84 267.236 85.84C267.97 85.84 268.575 86.016 269.051 86.368C269.535 86.7127 269.862 87.2077 270.03 87.853H268.677C268.567 87.5523 268.391 87.3177 268.149 87.149C267.907 86.9803 267.603 86.896 267.236 86.896C266.723 86.896 266.312 87.0793 266.004 87.446C265.704 87.8053 265.553 88.3113 265.553 88.964C265.553 89.6167 265.704 90.1263 266.004 90.493C266.312 90.8597 266.723 91.043 267.236 91.043ZM273.909 92.099C273.337 92.099 272.82 91.9707 272.358 91.714C271.896 91.45 271.533 91.0833 271.269 90.614C271.005 90.1373 270.873 89.5873 270.873 88.964C270.873 88.348 271.009 87.8017 271.28 87.325C271.551 86.8483 271.922 86.4817 272.391 86.225C272.86 85.9683 273.385 85.84 273.964 85.84C274.543 85.84 275.068 85.9683 275.537 86.225C276.006 86.4817 276.377 86.8483 276.648 87.325C276.919 87.8017 277.055 88.348 277.055 88.964C277.055 89.58 276.916 90.1263 276.637 90.603C276.358 91.0797 275.977 91.45 275.493 91.714C275.016 91.9707 274.488 92.099 273.909 92.099ZM273.909 91.01C274.232 91.01 274.532 90.933 274.811 90.779C275.097 90.625 275.328 90.394 275.504 90.086C275.68 89.778 275.768 89.404 275.768 88.964C275.768 88.524 275.684 88.1537 275.515 87.853C275.346 87.545 275.123 87.314 274.844 87.16C274.565 87.006 274.265 86.929 273.942 86.929C273.619 86.929 273.319 87.006 273.04 87.16C272.769 87.314 272.552 87.545 272.391 87.853C272.23 88.1537 272.149 88.524 272.149 88.964C272.149 89.6167 272.314 90.1227 272.644 90.482C272.981 90.834 273.403 91.01 273.909 91.01ZM272.171 85.213C272.23 84.7877 272.369 84.4687 272.589 84.256C272.809 84.036 273.084 83.926 273.414 83.926C273.553 83.926 273.674 83.948 273.777 83.992C273.88 84.036 274.004 84.102 274.151 84.19C274.261 84.2633 274.353 84.3183 274.426 84.355C274.507 84.3917 274.595 84.41 274.69 84.41C274.815 84.41 274.917 84.3733 274.998 84.3C275.086 84.2193 275.141 84.102 275.163 83.948H275.867C275.808 84.3733 275.669 84.696 275.449 84.916C275.229 85.1287 274.954 85.235 274.624 85.235C274.485 85.235 274.36 85.213 274.25 85.169C274.14 85.1177 274.019 85.048 273.887 84.96C273.755 84.8793 273.652 84.8243 273.579 84.795C273.513 84.7583 273.436 84.74 273.348 84.74C273.223 84.74 273.117 84.7803 273.029 84.861C272.948 84.9417 272.897 85.059 272.875 85.213H272.171ZM283.85 88.821C283.85 89.0483 283.835 89.2537 283.806 89.437H279.175C279.211 89.921 279.391 90.3097 279.714 90.603C280.036 90.8963 280.432 91.043 280.902 91.043C281.576 91.043 282.053 90.7607 282.332 90.196H283.685C283.501 90.7533 283.168 91.2117 282.684 91.571C282.207 91.923 281.613 92.099 280.902 92.099C280.322 92.099 279.802 91.9707 279.34 91.714C278.885 91.45 278.526 91.0833 278.262 90.614C278.005 90.1373 277.877 89.5873 277.877 88.964C277.877 88.3407 278.001 87.7943 278.251 87.325C278.507 86.8483 278.863 86.4817 279.318 86.225C279.78 85.9683 280.308 85.84 280.902 85.84C281.474 85.84 281.983 85.9647 282.431 86.214C282.878 86.4633 283.226 86.8153 283.476 87.27C283.725 87.7173 283.85 88.2343 283.85 88.821ZM282.541 88.425C282.533 87.963 282.368 87.5927 282.046 87.314C281.723 87.0353 281.323 86.896 280.847 86.896C280.414 86.896 280.044 87.0353 279.736 87.314C279.428 87.5853 279.244 87.9557 279.186 88.425H282.541ZM287.284 92.099C286.807 92.099 286.378 92.0147 285.997 91.846C285.623 91.67 285.326 91.4353 285.106 91.142C284.886 90.8413 284.768 90.5077 284.754 90.141H286.052C286.074 90.3977 286.195 90.614 286.415 90.79C286.642 90.9587 286.924 91.043 287.262 91.043C287.614 91.043 287.885 90.977 288.076 90.845C288.274 90.7057 288.373 90.5297 288.373 90.317C288.373 90.0897 288.263 89.921 288.043 89.811C287.83 89.701 287.489 89.58 287.02 89.448C286.565 89.3233 286.195 89.2023 285.909 89.085C285.623 88.9677 285.373 88.788 285.161 88.546C284.955 88.304 284.853 87.985 284.853 87.589C284.853 87.2663 284.948 86.973 285.139 86.709C285.329 86.4377 285.601 86.225 285.953 86.071C286.312 85.917 286.723 85.84 287.185 85.84C287.874 85.84 288.428 86.016 288.846 86.368C289.271 86.7127 289.498 87.1857 289.528 87.787H288.274C288.252 87.5157 288.142 87.2993 287.944 87.138C287.746 86.9767 287.478 86.896 287.141 86.896C286.811 86.896 286.558 86.9583 286.382 87.083C286.206 87.2077 286.118 87.3727 286.118 87.578C286.118 87.7393 286.176 87.875 286.294 87.985C286.411 88.095 286.554 88.183 286.723 88.249C286.891 88.3077 287.141 88.3847 287.471 88.48C287.911 88.5973 288.27 88.7183 288.549 88.843C288.835 88.9603 289.08 89.1363 289.286 89.371C289.491 89.6057 289.597 89.9173 289.605 90.306C289.605 90.6507 289.509 90.9587 289.319 91.23C289.128 91.5013 288.857 91.714 288.505 91.868C288.16 92.022 287.753 92.099 287.284 92.099ZM291.466 92.077C291.238 92.077 291.048 92 290.894 91.846C290.74 91.692 290.663 91.5013 290.663 91.274C290.663 91.0467 290.74 90.856 290.894 90.702C291.048 90.548 291.238 90.471 291.466 90.471C291.686 90.471 291.873 90.548 292.027 90.702C292.181 90.856 292.258 91.0467 292.258 91.274C292.258 91.5013 292.181 91.692 292.027 91.846C291.873 92 291.686 92.077 291.466 92.077Z" fill="#19162F"/>
<path d="M106.368 44.0748C107.075 44.4104 107.914 44.1108 108.249 43.4037L115.691 27.6684C115.08 26.7936 114.445 25.9307 113.798 25.0798L105.72 42.1813C105.373 42.8884 105.673 43.7393 106.368 44.0748Z" fill="#2D2B4C"/>
<path d="M97.679 60.9727C96.5645 62.9141 96.0132 65.1432 96.0132 67.6239C96.0132 70.1406 96.5645 72.3936 97.6551 74.2991C98.0386 74.9822 98.482 75.6054 98.9733 76.1687C90.7402 90.5497 95.7496 105.434 95.7496 105.434C110.406 100.029 115.488 87.8652 116.998 77.4629C118.064 76.5881 118.951 75.5455 119.67 74.2991C119.994 73.7359 120.281 73.1366 120.509 72.5135C120.737 73.1366 121.012 73.7359 121.336 74.2991C122.378 76.1207 123.793 77.5708 125.554 78.5895C120.845 99.5019 105.984 116.508 86.5097 124.034C85.7547 108.55 86.9412 89.7707 92.6696 69.3616H95.0785V58.7915H97.7509V55.2083C100.292 54.8607 107.446 53.5904 110.131 48.3293C111.928 44.794 115.056 36.9563 117.549 30.5088C122.259 38.1188 125.422 46.8193 126.609 56.131C126.393 56.2389 126.189 56.3348 125.974 56.4546C124.032 57.5092 122.474 59.0192 121.36 60.9847C121.036 61.5479 120.749 62.1351 120.521 62.7703C120.305 62.1471 120.03 61.5479 119.694 60.9727C118.58 59.0192 117.022 57.5092 115.068 56.4546C113.175 55.4479 111.017 54.9206 108.681 54.9206C106.344 54.9206 104.198 55.4479 102.281 56.4546C100.352 57.4972 98.7936 59.0073 97.679 60.9727Z" fill="#2D2B4C"/>
<path d="M48.5674 113.859C36.5592 50.4383 63.3319 15.768 78.0246 2.04607C73.5185 1.00344 68.8327 0.440186 64.003 0.440186C52.9296 0.440186 42.5153 3.34037 33.4673 8.40969C55.0988 29.5259 40.9814 53.2426 40.9814 53.2426C23.0769 41.7618 25.6416 21.6522 28.338 11.6215C18.1874 18.6802 10.1819 28.651 5.49609 40.3596C11.3923 36.8722 22.9451 42.7325 29.5604 53.3265C35.7083 63.1895 30.7349 74.2869 29.9199 75.9527C29.9199 75.9527 29.9079 75.9527 29.9079 75.9647C39.7949 90.9809 44.8882 110.827 47.4768 125.987C51.1799 127.005 55.0149 127.677 58.9577 128L58.0589 112.816L48.5674 113.859Z" fill="#2D2B4C"/>
<path d="M90.4173 49.791H76.959V80.0391H82.7593C78.9244 93.4255 75.5688 109.976 75.3771 127.173C73.4117 127.533 71.4223 127.796 69.3969 127.964L66.4129 111.893C66.4129 111.893 58.9707 56.0947 82.7953 3.31616C90.1296 5.62912 96.8768 9.26033 102.773 13.9342C99.8728 18.9556 91.9033 32.8932 89.5304 38.346C87.7927 42.3008 89.075 46.7949 90.4173 49.791Z" fill="#2D2B4C"/>
<path d="M100.759 41.3544C101.454 41.6899 102.305 41.3903 102.64 40.6832L111.401 22.1437C110.73 21.3767 110.047 20.6217 109.339 19.8906L100.088 39.4489C99.7521 40.1679 100.052 41.0188 100.759 41.3544Z" fill="#2D2B4C"/>
<path d="M95.1504 38.6339C95.8455 38.9695 96.6844 38.6699 97.0199 37.9628L106.763 17.3379C106.044 16.6668 105.313 16.0197 104.57 15.3845L94.4793 36.7284C94.1437 37.4475 94.4433 38.2983 95.1504 38.6339Z" fill="#2D2B4C"/>
<path d="M26.1932 78.3855C24.4915 78.4214 12.1477 78.3615 5.93989 68.4146C3.55503 64.5917 2.06898 60.4211 1.38588 56.4424C1.07429 59.031 0.894531 61.6555 0.894531 64.328C0.894531 90.106 15.9707 112.301 37.6861 122.392C36.3678 101.563 30.0521 86.0674 26.1932 78.3855ZM12.9267 82.9395C30.7472 87.853 28.8058 104.259 28.8058 104.259C13.1064 102.006 12.9267 82.9395 12.9267 82.9395Z" fill="#2D2B4C"/>
<path d="M18.5594 89.4709C17.4209 88.0928 16.2345 86.7505 14.9521 85.4922C15.7791 87.0981 16.7258 88.6201 17.6965 90.1181C18.6673 91.6161 19.7099 93.0662 20.7525 94.5163C21.8191 95.9424 22.9097 97.3566 24.0602 98.7228C25.1987 100.101 26.3851 101.443 27.6674 102.702C26.8405 101.096 25.8937 99.5736 24.911 98.0756C23.9403 96.5776 22.8977 95.1275 21.8551 93.6774C20.7885 92.2513 19.6979 90.8371 18.5594 89.4709Z" fill="#2D2B4C"/>
<path d="M32.952 21.1849C33.4553 24.4327 34.1025 27.6444 34.7856 30.8562C35.5166 34.056 36.2596 37.2438 37.1584 40.3956C38.0453 43.5595 39.004 46.6993 40.2264 49.7913C40.0346 46.4716 39.6032 43.2119 39.0879 39.9642C38.5846 36.7165 37.9374 33.5047 37.2543 30.293C36.5353 27.0932 35.7802 23.9054 34.8814 20.7535C33.9946 17.5897 33.0239 14.4498 31.8135 11.3699C32.0052 14.6775 32.4367 17.9372 32.952 21.1849Z" fill="#2D2B4C"/>
<path d="M108.585 80.339C108.01 81.6693 107.434 82.9995 106.835 84.3298C105.409 87.3857 103.959 90.4178 102.377 93.3779C100.795 96.3619 99.1533 99.2981 97.2598 102.138C98.1706 98.8546 99.3091 95.6668 100.543 92.527C101.742 89.3871 103.096 86.2952 104.474 83.2392C104.966 82.1846 105.457 81.154 105.96 80.1113C106.799 80.2671 107.674 80.339 108.585 80.339Z" fill="#2D2B4C"/>
<path d="M95.3042 52.4038V57.2215H85.2495V62.4226H92.7756V67.0965H85.2495V77.0793H79.2334V52.3918H95.3042V52.4038Z" fill="#2D2B4C"/>
<path d="M103.334 76.1446C101.8 75.3296 100.59 74.1552 99.7147 72.6332C98.8399 71.1112 98.3965 69.3256 98.3965 67.2882C98.3965 65.2749 98.8399 63.5012 99.7387 61.9553C100.626 60.4213 101.848 59.2468 103.394 58.4199C104.94 57.593 106.678 57.1855 108.595 57.1855C110.513 57.1855 112.25 57.593 113.796 58.4199C115.342 59.2468 116.565 60.4213 117.451 61.9553C118.338 63.4892 118.794 65.2629 118.794 67.2882C118.794 69.3016 118.338 71.0753 117.439 72.6092C116.541 74.1432 115.306 75.3296 113.748 76.1446C112.19 76.9715 110.453 77.3789 108.523 77.3789C106.594 77.3789 104.868 76.9715 103.334 76.1446ZM111.447 70.9075C112.262 70.0686 112.658 68.8582 112.658 67.2882C112.658 65.7183 112.262 64.5079 111.483 63.669C110.704 62.8301 109.734 62.3987 108.583 62.3987C107.409 62.3987 106.438 62.8181 105.659 63.645C104.88 64.472 104.496 65.6943 104.496 67.2882C104.496 68.8582 104.88 70.0686 105.647 70.9075C106.414 71.7464 107.361 72.1778 108.511 72.1778C109.662 72.1778 110.644 71.7464 111.447 70.9075Z" fill="#2D2B4C"/>
<path d="M126.213 76.1446C124.679 75.3296 123.469 74.1552 122.594 72.6332C121.719 71.1112 121.275 69.3256 121.275 67.2882C121.275 65.2749 121.719 63.5012 122.618 61.9553C123.504 60.4213 124.727 59.2468 126.273 58.4199C127.819 57.593 129.556 57.1855 131.474 57.1855C133.391 57.1855 135.129 57.593 136.675 58.4199C138.221 59.2468 139.443 60.4213 140.33 61.9553C141.217 63.4892 141.673 65.2629 141.673 67.2882C141.673 69.3016 141.217 71.0753 140.318 72.6092C139.419 74.1432 138.185 75.3296 136.627 76.1446C135.069 76.9715 133.332 77.3789 131.402 77.3789C129.473 77.3789 127.747 76.9595 126.213 76.1446ZM134.338 70.9075C135.153 70.0686 135.549 68.8582 135.549 67.2882C135.549 65.7183 135.153 64.5079 134.374 63.669C133.595 62.8301 132.624 62.3987 131.474 62.3987C130.299 62.3987 129.329 62.8181 128.55 63.645C127.771 64.472 127.387 65.6943 127.387 67.2882C127.387 68.8582 127.771 70.0686 128.538 70.9075C129.305 71.7464 130.252 72.1778 131.402 72.1778C132.553 72.1658 133.523 71.7464 134.338 70.9075Z" fill="#2D2B4C"/>
<path d="M144.81 61.9314C145.577 60.4094 146.608 59.235 147.926 58.4201C149.245 57.5931 150.707 57.1857 152.324 57.1857C153.607 57.1857 154.793 57.4493 155.86 58.0006C156.926 58.5399 157.765 59.2709 158.377 60.1817V51.0737H164.393V77.0915H158.377V74.2752C157.813 75.2099 157.01 75.9649 155.968 76.5282C154.925 77.0915 153.715 77.3671 152.324 77.3671C150.707 77.3671 149.245 76.9477 147.926 76.1207C146.608 75.2938 145.577 74.1074 144.81 72.5734C144.043 71.0394 143.672 69.2658 143.672 67.2404C143.672 65.2271 144.055 63.4654 144.81 61.9314ZM157.118 63.7291C156.291 62.8662 155.273 62.4228 154.074 62.4228C152.876 62.4228 151.869 62.8542 151.03 63.7051C150.203 64.568 149.784 65.7424 149.784 67.2404C149.784 68.7385 150.203 69.9249 151.03 70.8117C151.857 71.6866 152.876 72.13 154.074 72.13C155.273 72.13 156.279 71.6986 157.118 70.8357C157.945 69.9728 158.365 68.7864 158.365 67.2884C158.365 65.7784 157.957 64.6039 157.118 63.7291Z" fill="#2D2B4C"/>
<path d="M169.176 54.5011C168.504 53.8779 168.169 53.111 168.169 52.2002C168.169 51.2654 168.504 50.4864 169.176 49.8632C169.847 49.2401 170.71 48.9285 171.764 48.9285C172.795 48.9285 173.646 49.2401 174.317 49.8632C174.988 50.4864 175.324 51.2654 175.324 52.2002C175.324 53.111 174.988 53.8779 174.317 54.5011C173.646 55.1243 172.795 55.4359 171.764 55.4359C170.71 55.4359 169.847 55.1243 169.176 54.5011ZM174.76 57.4732V77.0914H168.744V57.4732H174.76Z" fill="#2D2B4C"/>
<path d="M197.507 68.7263H183.905C184.001 69.9487 184.396 70.8835 185.079 71.5187C185.774 72.1658 186.613 72.4894 187.632 72.4894C189.13 72.4894 190.172 71.8542 190.76 70.5959H197.159C196.836 71.8782 196.236 73.0407 195.386 74.0713C194.535 75.1019 193.456 75.9169 192.174 76.4921C190.879 77.0793 189.441 77.367 187.847 77.367C185.93 77.367 184.216 76.9595 182.718 76.1326C181.22 75.3177 180.046 74.1432 179.207 72.6212C178.368 71.0992 177.937 69.3136 177.937 67.2763C177.937 65.2389 178.356 63.4533 179.183 61.9313C180.01 60.4093 181.184 59.2349 182.682 58.4199C184.18 57.593 185.906 57.1855 187.847 57.1855C189.753 57.1855 191.431 57.581 192.917 58.384C194.391 59.1749 195.541 60.3134 196.38 61.7995C197.219 63.2855 197.627 64.9993 197.627 66.9647C197.615 67.5279 197.579 68.1152 197.507 68.7263ZM191.455 65.3828C191.455 64.3521 191.107 63.5372 190.4 62.926C189.693 62.3148 188.818 62.0152 187.764 62.0152C186.757 62.0152 185.906 62.3148 185.211 62.902C184.516 63.4892 184.096 64.3162 183.929 65.3947H191.455V65.3828Z" fill="#2D2B4C"/>
<path d="M222.159 52.4038V77.0913H216.143V66.9287H206.784V77.0913H200.768V52.4038H206.784V62.0751H216.143V52.4038H222.159Z" fill="#EA906C"/>
<path d="M245.863 57.4734V77.0916H239.847V74.4191C239.236 75.282 238.409 75.989 237.366 76.5163C236.324 77.0436 235.173 77.3073 233.903 77.3073C232.405 77.3073 231.074 76.9717 229.924 76.3006C228.773 75.6295 227.887 74.6588 227.251 73.4004C226.616 72.1301 226.305 70.6441 226.305 68.9303V57.4614H232.285V68.1154C232.285 69.4217 232.62 70.4523 233.303 71.1714C233.987 71.9024 234.897 72.2619 236.048 72.2619C237.222 72.2619 238.145 71.9024 238.828 71.1714C239.511 70.4403 239.847 69.4217 239.847 68.1154V57.4614H245.863V57.4734Z" fill="#EA906C"/>
<path d="M258.626 58.0366C259.681 57.4733 260.891 57.1977 262.246 57.1977C263.863 57.1977 265.326 57.6051 266.644 58.432C267.95 59.2589 268.993 60.4214 269.76 61.9434C270.527 63.4654 270.898 65.2391 270.898 67.2524C270.898 69.2658 270.515 71.0514 269.76 72.5854C268.993 74.1194 267.962 75.3058 266.644 76.1327C265.326 76.9596 263.863 77.3791 262.246 77.3791C260.855 77.3791 259.657 77.1034 258.626 76.5522C257.596 76.0009 256.781 75.2699 256.206 74.3591V77.1034H250.189V51.0737H256.206V60.2536C256.757 59.3309 257.572 58.5998 258.626 58.0366ZM263.528 63.7171C262.701 62.8662 261.67 62.4348 260.448 62.4348C259.25 62.4348 258.243 62.8662 257.404 63.741C256.577 64.6039 256.158 65.7903 256.158 67.2884C256.158 68.7864 256.577 69.9728 257.404 70.8357C258.231 71.6986 259.25 72.13 260.448 72.13C261.646 72.13 262.665 71.6866 263.504 70.8117C264.343 69.9249 264.774 68.7385 264.774 67.2404C264.774 65.7424 264.355 64.568 263.528 63.7171Z" fill="#EA906C"/>
</svg>
