<svg width="44" height="44" viewBox="0 0 44 44" fill="none" xmlns="http://www.w3.org/2000/svg">
<path d="M36.7618 15.0514C37.0089 15.1708 37.3002 15.0647 37.415 14.8215L40.0058 9.39171C39.794 9.08662 39.5733 8.79037 39.3438 8.49854L36.5278 14.397C36.4175 14.6402 36.519 14.9321 36.7618 15.0514Z" fill="#F7F7F7"/>
<path d="M43.9996 22.0377C43.9996 17.7487 42.7726 13.7515 40.6585 10.3645C39.789 12.5886 38.6988 15.2947 38.0676 16.5106C37.0657 18.4606 34.2719 18.8231 33.5877 18.9072C30.2069 27.8124 29.5095 36.0765 29.8361 42.6338C38.1162 39.4679 43.9996 31.4426 43.9996 22.0377ZM33.0625 36.218C33.0625 36.218 29.611 26.057 40.3936 20.5166C40.3892 20.5166 42.8432 32.6497 33.0625 36.218Z" fill="#F7F7F7"/>
<path d="M16.6179 39.1229C12.4337 17.2445 21.7642 5.28389 26.8841 0.552708C25.3128 0.194553 23.6798 0 21.9982 0C18.1406 0 14.5126 0.999296 11.3568 2.75028C18.8953 10.0372 13.9741 18.2128 13.9741 18.2128C7.73314 14.251 8.62471 7.31786 9.56482 3.85569C6.02505 6.28761 3.2356 9.73209 1.60254 13.7691C3.65932 12.5664 7.68459 14.5871 9.98854 18.2438C12.1336 21.6441 10.399 25.4732 10.1121 26.048C10.1121 26.048 10.1077 26.048 10.1077 26.0525C13.5548 31.2302 15.3291 38.0794 16.2295 43.3058C17.5183 43.6551 18.8556 43.8895 20.2283 44L19.9149 38.7647L16.6179 39.1229Z" fill="#F7F7F7"/>
<path d="M30.8953 13.0749C31.7251 11.1957 34.5013 6.38931 35.5121 4.65601C33.4509 3.04653 31.1028 1.79077 28.5473 0.994873C20.2407 19.1989 22.836 38.4464 22.836 38.4464L23.8776 43.9912C24.5838 43.9337 25.2767 43.8364 25.9608 43.7126C26.0844 32.3975 30.2377 21.8961 31.8619 18.2173C31.7957 18.1244 29.889 15.352 30.8953 13.0749Z" fill="#F7F7F7"/>
<path d="M34.806 14.114C35.0487 14.229 35.3444 14.1273 35.4592 13.8841L38.5134 7.49037C38.2795 7.22507 38.0412 6.96419 37.7984 6.71216L34.5764 13.4596C34.4573 13.7028 34.5632 13.9991 34.806 14.114Z" fill="#F7F7F7"/>
<path d="M32.8509 13.1767C33.0936 13.2916 33.3849 13.1899 33.5041 12.9423L36.8982 5.82786C36.6466 5.59793 36.3951 5.37242 36.1347 5.15576L32.6214 12.5178C32.5022 12.7654 32.6081 13.0573 32.8509 13.1767Z" fill="#F7F7F7"/>
<path d="M1.76547 23.4482C0.935701 22.1305 0.414886 20.6891 0.172134 19.3184C0.0617915 20.2115 0 21.118 0 22.0377C0 30.9297 5.2567 38.5836 12.8262 42.0678C12.3627 34.8826 10.1647 29.5368 8.82295 26.8883C8.23152 26.9015 3.92376 26.875 1.76547 23.4482ZM9.73217 35.8112C4.25479 35.033 4.193 28.4579 4.193 28.4579C10.4075 30.1514 9.73217 35.8112 9.73217 35.8112Z" fill="#F7F7F7"/>
<path d="M6.15731 30.7084C5.76008 30.2352 5.34961 29.771 4.89941 29.3376C5.19072 29.8904 5.51733 30.4165 5.85718 30.9339C6.19704 31.4512 6.55896 31.9509 6.92529 32.4505C7.30046 32.9413 7.67562 33.4321 8.07726 33.9008C8.4745 34.3739 8.88497 34.8382 9.33516 35.2715C9.04386 34.7188 8.71725 34.1926 8.3774 33.6753C8.03754 33.158 7.67562 32.6583 7.3137 32.1587C6.93412 31.6723 6.55454 31.1815 6.15731 30.7084Z" fill="#F7F7F7"/>
<path d="M11.1755 7.15433C11.3521 8.27301 11.5772 9.38285 11.8155 10.4883C12.0671 11.5893 12.3319 12.6903 12.6453 13.778C12.9542 14.8701 13.2897 15.9534 13.7134 17.0191C13.6472 15.8739 13.4971 14.7508 13.3161 13.6321C13.1396 12.5134 12.9145 11.4036 12.6806 10.2981C12.429 9.19714 12.1642 8.09614 11.8552 7.00399C11.5463 5.91184 11.2108 4.82853 10.7871 3.76733C10.8445 4.91255 10.9946 6.03565 11.1755 7.15433Z" fill="#F7F7F7"/>
<path d="M36.1037 28.5551C35.6226 29.6163 35.1547 30.6774 34.731 31.7652C34.3029 32.8485 33.9057 33.9451 33.5879 35.0814C34.2455 34.1042 34.8237 33.0917 35.371 32.0614C35.9227 31.0356 36.4303 29.9877 36.9246 28.9353C37.4057 27.8785 37.8736 26.8129 38.2973 25.7252C38.7254 24.6419 39.1226 23.5453 39.4404 22.4089C38.7828 23.3861 38.2046 24.3987 37.6573 25.4245C37.1012 26.4548 36.598 27.5027 36.1037 28.5551Z" fill="#F7F7F7"/>
</svg>
