<svg width="209" height="36" viewBox="0 0 209 36" fill="none" xmlns="http://www.w3.org/2000/svg">
<path d="M44.1484 1.22461L41.3242 9H40.1699L43.4219 0.46875H44.166L44.1484 1.22461ZM46.5156 9L43.6855 1.22461L43.668 0.46875H44.4121L47.6758 9H46.5156ZM46.3691 5.8418V6.76758H41.5762V5.8418H46.3691ZM52.6504 7.76953V0H53.7402V9H52.7441L52.6504 7.76953ZM48.3848 5.90039V5.77734C48.3848 5.29297 48.4434 4.85352 48.5605 4.45898C48.6816 4.06055 48.8516 3.71875 49.0703 3.43359C49.293 3.14844 49.5566 2.92969 49.8613 2.77734C50.1699 2.62109 50.5137 2.54297 50.8926 2.54297C51.291 2.54297 51.6387 2.61328 51.9355 2.75391C52.2363 2.89062 52.4902 3.0918 52.6973 3.35742C52.9082 3.61914 53.0742 3.93555 53.1953 4.30664C53.3164 4.67773 53.4004 5.09766 53.4473 5.56641V6.10547C53.4043 6.57031 53.3203 6.98828 53.1953 7.35938C53.0742 7.73047 52.9082 8.04688 52.6973 8.30859C52.4902 8.57031 52.2363 8.77148 51.9355 8.91211C51.6348 9.04883 51.2832 9.11719 50.8809 9.11719C50.5098 9.11719 50.1699 9.03711 49.8613 8.87695C49.5566 8.7168 49.293 8.49219 49.0703 8.20312C48.8516 7.91406 48.6816 7.57422 48.5605 7.18359C48.4434 6.78906 48.3848 6.36133 48.3848 5.90039ZM49.4746 5.77734V5.90039C49.4746 6.2168 49.5059 6.51367 49.5684 6.79102C49.6348 7.06836 49.7363 7.3125 49.873 7.52344C50.0098 7.73438 50.1836 7.90039 50.3945 8.02148C50.6055 8.13867 50.8574 8.19727 51.1504 8.19727C51.5098 8.19727 51.8047 8.12109 52.0352 7.96875C52.2695 7.81641 52.457 7.61523 52.5977 7.36523C52.7383 7.11523 52.8477 6.84375 52.9258 6.55078V5.13867C52.8789 4.92383 52.8105 4.7168 52.7207 4.51758C52.6348 4.31445 52.5215 4.13477 52.3809 3.97852C52.2441 3.81836 52.0742 3.69141 51.8711 3.59766C51.6719 3.50391 51.4355 3.45703 51.1621 3.45703C50.8652 3.45703 50.6094 3.51953 50.3945 3.64453C50.1836 3.76562 50.0098 3.93359 49.873 4.14844C49.7363 4.35938 49.6348 4.60547 49.5684 4.88672C49.5059 5.16406 49.4746 5.46094 49.4746 5.77734ZM56.5059 3.91992V9H55.416V2.66016H56.4473L56.5059 3.91992ZM56.2832 5.58984L55.7793 5.57227C55.7832 5.13867 55.8398 4.73828 55.9492 4.37109C56.0586 4 56.2207 3.67773 56.4355 3.4043C56.6504 3.13086 56.918 2.91992 57.2383 2.77148C57.5586 2.61914 57.9297 2.54297 58.3516 2.54297C58.6484 2.54297 58.9219 2.58594 59.1719 2.67188C59.4219 2.75391 59.6387 2.88477 59.8223 3.06445C60.0059 3.24414 60.1484 3.47461 60.25 3.75586C60.3516 4.03711 60.4023 4.37695 60.4023 4.77539V9H59.3184V4.82812C59.3184 4.49609 59.2617 4.23047 59.1484 4.03125C59.0391 3.83203 58.8828 3.6875 58.6797 3.59766C58.4766 3.50391 58.2383 3.45703 57.9648 3.45703C57.6445 3.45703 57.377 3.51367 57.1621 3.62695C56.9473 3.74023 56.7754 3.89648 56.6465 4.0957C56.5176 4.29492 56.4238 4.52344 56.3652 4.78125C56.3105 5.03516 56.2832 5.30469 56.2832 5.58984ZM60.3906 4.99219L59.6641 5.21484C59.668 4.86719 59.7246 4.5332 59.834 4.21289C59.9473 3.89258 60.1094 3.60742 60.3203 3.35742C60.5352 3.10742 60.7988 2.91016 61.1113 2.76562C61.4238 2.61719 61.7812 2.54297 62.1836 2.54297C62.5234 2.54297 62.8242 2.58789 63.0859 2.67773C63.3516 2.76758 63.5742 2.90625 63.7539 3.09375C63.9375 3.27734 64.0762 3.51367 64.1699 3.80273C64.2637 4.0918 64.3105 4.43555 64.3105 4.83398V9H63.2207V4.82227C63.2207 4.4668 63.1641 4.19141 63.0508 3.99609C62.9414 3.79688 62.7852 3.6582 62.582 3.58008C62.3828 3.49805 62.1445 3.45703 61.8672 3.45703C61.6289 3.45703 61.418 3.49805 61.2344 3.58008C61.0508 3.66211 60.8965 3.77539 60.7715 3.91992C60.6465 4.06055 60.5508 4.22266 60.4844 4.40625C60.4219 4.58984 60.3906 4.78516 60.3906 4.99219ZM67.1289 2.66016V9H66.0391V2.66016H67.1289ZM65.957 0.978516C65.957 0.802734 66.0098 0.654297 66.1152 0.533203C66.2246 0.412109 66.3848 0.351562 66.5957 0.351562C66.8027 0.351562 66.9609 0.412109 67.0703 0.533203C67.1836 0.654297 67.2402 0.802734 67.2402 0.978516C67.2402 1.14648 67.1836 1.29102 67.0703 1.41211C66.9609 1.5293 66.8027 1.58789 66.5957 1.58789C66.3848 1.58789 66.2246 1.5293 66.1152 1.41211C66.0098 1.29102 65.957 1.14648 65.957 0.978516ZM69.9531 4.01367V9H68.8691V2.66016H69.8945L69.9531 4.01367ZM69.6953 5.58984L69.2441 5.57227C69.248 5.13867 69.3125 4.73828 69.4375 4.37109C69.5625 4 69.7383 3.67773 69.9648 3.4043C70.1914 3.13086 70.4609 2.91992 70.7734 2.77148C71.0898 2.61914 71.4395 2.54297 71.8223 2.54297C72.1348 2.54297 72.416 2.58594 72.666 2.67188C72.916 2.75391 73.1289 2.88672 73.3047 3.07031C73.4844 3.25391 73.6211 3.49219 73.7148 3.78516C73.8086 4.07422 73.8555 4.42773 73.8555 4.8457V9H72.7656V4.83398C72.7656 4.50195 72.7168 4.23633 72.6191 4.03711C72.5215 3.83398 72.3789 3.6875 72.1914 3.59766C72.0039 3.50391 71.7734 3.45703 71.5 3.45703C71.2305 3.45703 70.9844 3.51367 70.7617 3.62695C70.543 3.74023 70.3535 3.89648 70.1934 4.0957C70.0371 4.29492 69.9141 4.52344 69.8242 4.78125C69.7383 5.03516 69.6953 5.30469 69.6953 5.58984ZM76.6797 2.66016V9H75.5898V2.66016H76.6797ZM75.5078 0.978516C75.5078 0.802734 75.5605 0.654297 75.666 0.533203C75.7754 0.412109 75.9355 0.351562 76.1465 0.351562C76.3535 0.351562 76.5117 0.412109 76.6211 0.533203C76.7344 0.654297 76.791 0.802734 76.791 0.978516C76.791 1.14648 76.7344 1.29102 76.6211 1.41211C76.5117 1.5293 76.3535 1.58789 76.1465 1.58789C75.9355 1.58789 75.7754 1.5293 75.666 1.41211C75.5605 1.29102 75.5078 1.14648 75.5078 0.978516ZM82.1113 7.31836C82.1113 7.16211 82.0762 7.01758 82.0059 6.88477C81.9395 6.74805 81.8008 6.625 81.5898 6.51562C81.3828 6.40234 81.0703 6.30469 80.6523 6.22266C80.3008 6.14844 79.9824 6.06055 79.6973 5.95898C79.416 5.85742 79.1758 5.73438 78.9766 5.58984C78.7812 5.44531 78.6309 5.27539 78.5254 5.08008C78.4199 4.88477 78.3672 4.65625 78.3672 4.39453C78.3672 4.14453 78.4219 3.9082 78.5312 3.68555C78.6445 3.46289 78.8027 3.26562 79.0059 3.09375C79.2129 2.92188 79.4609 2.78711 79.75 2.68945C80.0391 2.5918 80.3613 2.54297 80.7168 2.54297C81.2246 2.54297 81.6582 2.63281 82.0176 2.8125C82.377 2.99219 82.6523 3.23242 82.8438 3.5332C83.0352 3.83008 83.1309 4.16016 83.1309 4.52344H82.0469C82.0469 4.34766 81.9941 4.17773 81.8887 4.01367C81.7871 3.8457 81.6367 3.70703 81.4375 3.59766C81.2422 3.48828 81.002 3.43359 80.7168 3.43359C80.416 3.43359 80.1719 3.48047 79.9844 3.57422C79.8008 3.66406 79.666 3.7793 79.5801 3.91992C79.498 4.06055 79.457 4.20898 79.457 4.36523C79.457 4.48242 79.4766 4.58789 79.5156 4.68164C79.5586 4.77148 79.6328 4.85547 79.7383 4.93359C79.8438 5.00781 79.9922 5.07812 80.1836 5.14453C80.375 5.21094 80.6191 5.27734 80.916 5.34375C81.4355 5.46094 81.8633 5.60156 82.1992 5.76562C82.5352 5.92969 82.7852 6.13086 82.9492 6.36914C83.1133 6.60742 83.1953 6.89648 83.1953 7.23633C83.1953 7.51367 83.1367 7.76758 83.0195 7.99805C82.9062 8.22852 82.7402 8.42773 82.5215 8.5957C82.3066 8.75977 82.0488 8.88867 81.748 8.98242C81.4512 9.07227 81.1172 9.11719 80.7461 9.11719C80.1875 9.11719 79.7148 9.01758 79.3281 8.81836C78.9414 8.61914 78.6484 8.36133 78.4492 8.04492C78.25 7.72852 78.1504 7.39453 78.1504 7.04297H79.2402C79.2559 7.33984 79.3418 7.57617 79.498 7.75195C79.6543 7.92383 79.8457 8.04688 80.0723 8.12109C80.2988 8.19141 80.5234 8.22656 80.7461 8.22656C81.043 8.22656 81.291 8.1875 81.4902 8.10938C81.6934 8.03125 81.8477 7.92383 81.9531 7.78711C82.0586 7.65039 82.1113 7.49414 82.1113 7.31836ZM87.2734 2.66016V3.49219H83.8457V2.66016H87.2734ZM85.0059 1.11914H86.0898V7.42969C86.0898 7.64453 86.123 7.80664 86.1895 7.91602C86.2559 8.02539 86.3418 8.09766 86.4473 8.13281C86.5527 8.16797 86.666 8.18555 86.7871 8.18555C86.877 8.18555 86.9707 8.17773 87.0684 8.16211C87.1699 8.14258 87.2461 8.12695 87.2969 8.11523L87.3027 9C87.2168 9.02734 87.1035 9.05273 86.9629 9.07617C86.8262 9.10352 86.6602 9.11719 86.4648 9.11719C86.1992 9.11719 85.9551 9.06445 85.7324 8.95898C85.5098 8.85352 85.332 8.67773 85.1992 8.43164C85.0703 8.18164 85.0059 7.8457 85.0059 7.42383V1.11914ZM89.6289 3.65625V9H88.5449V2.66016H89.5996L89.6289 3.65625ZM91.6094 2.625L91.6035 3.63281C91.5137 3.61328 91.4277 3.60156 91.3457 3.59766C91.2676 3.58984 91.1777 3.58594 91.0762 3.58594C90.8262 3.58594 90.6055 3.625 90.4141 3.70312C90.2227 3.78125 90.0605 3.89062 89.9277 4.03125C89.7949 4.17188 89.6895 4.33984 89.6113 4.53516C89.5371 4.72656 89.4883 4.9375 89.4648 5.16797L89.1602 5.34375C89.1602 4.96094 89.1973 4.60156 89.2715 4.26562C89.3496 3.92969 89.4688 3.63281 89.6289 3.375C89.7891 3.11328 89.9922 2.91016 90.2383 2.76562C90.4883 2.61719 90.7852 2.54297 91.1289 2.54297C91.207 2.54297 91.2969 2.55273 91.3984 2.57227C91.5 2.58789 91.5703 2.60547 91.6094 2.625ZM96.1152 7.91602V4.65234C96.1152 4.40234 96.0645 4.18555 95.9629 4.00195C95.8652 3.81445 95.7168 3.66992 95.5176 3.56836C95.3184 3.4668 95.0723 3.41602 94.7793 3.41602C94.5059 3.41602 94.2656 3.46289 94.0586 3.55664C93.8555 3.65039 93.6953 3.77344 93.5781 3.92578C93.4648 4.07812 93.4082 4.24219 93.4082 4.41797H92.3242C92.3242 4.19141 92.3828 3.9668 92.5 3.74414C92.6172 3.52148 92.7852 3.32031 93.0039 3.14062C93.2266 2.95703 93.4922 2.8125 93.8008 2.70703C94.1133 2.59766 94.4609 2.54297 94.8438 2.54297C95.3047 2.54297 95.7109 2.62109 96.0625 2.77734C96.418 2.93359 96.6953 3.16992 96.8945 3.48633C97.0977 3.79883 97.1992 4.19141 97.1992 4.66406V7.61719C97.1992 7.82812 97.2168 8.05273 97.252 8.29102C97.291 8.5293 97.3477 8.73438 97.4219 8.90625V9H96.291C96.2363 8.875 96.1934 8.70898 96.1621 8.50195C96.1309 8.29102 96.1152 8.0957 96.1152 7.91602ZM96.3027 5.15625L96.3145 5.91797H95.2188C94.9102 5.91797 94.6348 5.94336 94.3926 5.99414C94.1504 6.04102 93.9473 6.11328 93.7832 6.21094C93.6191 6.30859 93.4941 6.43164 93.4082 6.58008C93.3223 6.72461 93.2793 6.89453 93.2793 7.08984C93.2793 7.28906 93.3242 7.4707 93.4141 7.63477C93.5039 7.79883 93.6387 7.92969 93.8184 8.02734C94.002 8.12109 94.2266 8.16797 94.4922 8.16797C94.8242 8.16797 95.1172 8.09766 95.3711 7.95703C95.625 7.81641 95.8262 7.64453 95.9746 7.44141C96.127 7.23828 96.209 7.04102 96.2207 6.84961L96.6836 7.37109C96.6562 7.53516 96.582 7.7168 96.4609 7.91602C96.3398 8.11523 96.1777 8.30664 95.9746 8.49023C95.7754 8.66992 95.5371 8.82031 95.2598 8.94141C94.9863 9.05859 94.6777 9.11719 94.334 9.11719C93.9043 9.11719 93.5273 9.0332 93.2031 8.86523C92.8828 8.69727 92.6328 8.47266 92.4531 8.19141C92.2773 7.90625 92.1895 7.58789 92.1895 7.23633C92.1895 6.89648 92.2559 6.59766 92.3887 6.33984C92.5215 6.07812 92.7129 5.86133 92.9629 5.68945C93.2129 5.51367 93.5137 5.38086 93.8652 5.29102C94.2168 5.20117 94.6094 5.15625 95.043 5.15625H96.3027ZM102.9 7.76953V0H103.99V9H102.994L102.9 7.76953ZM98.6348 5.90039V5.77734C98.6348 5.29297 98.6934 4.85352 98.8105 4.45898C98.9316 4.06055 99.1016 3.71875 99.3203 3.43359C99.543 3.14844 99.8066 2.92969 100.111 2.77734C100.42 2.62109 100.764 2.54297 101.143 2.54297C101.541 2.54297 101.889 2.61328 102.186 2.75391C102.486 2.89062 102.74 3.0918 102.947 3.35742C103.158 3.61914 103.324 3.93555 103.445 4.30664C103.566 4.67773 103.65 5.09766 103.697 5.56641V6.10547C103.654 6.57031 103.57 6.98828 103.445 7.35938C103.324 7.73047 103.158 8.04688 102.947 8.30859C102.74 8.57031 102.486 8.77148 102.186 8.91211C101.885 9.04883 101.533 9.11719 101.131 9.11719C100.76 9.11719 100.42 9.03711 100.111 8.87695C99.8066 8.7168 99.543 8.49219 99.3203 8.20312C99.1016 7.91406 98.9316 7.57422 98.8105 7.18359C98.6934 6.78906 98.6348 6.36133 98.6348 5.90039ZM99.7246 5.77734V5.90039C99.7246 6.2168 99.7559 6.51367 99.8184 6.79102C99.8848 7.06836 99.9863 7.3125 100.123 7.52344C100.26 7.73438 100.434 7.90039 100.645 8.02148C100.855 8.13867 101.107 8.19727 101.4 8.19727C101.76 8.19727 102.055 8.12109 102.285 7.96875C102.52 7.81641 102.707 7.61523 102.848 7.36523C102.988 7.11523 103.098 6.84375 103.176 6.55078V5.13867C103.129 4.92383 103.061 4.7168 102.971 4.51758C102.885 4.31445 102.771 4.13477 102.631 3.97852C102.494 3.81836 102.324 3.69141 102.121 3.59766C101.922 3.50391 101.686 3.45703 101.412 3.45703C101.115 3.45703 100.859 3.51953 100.645 3.64453C100.434 3.76562 100.26 3.93359 100.123 4.14844C99.9863 4.35938 99.8848 4.60547 99.8184 4.88672C99.7559 5.16406 99.7246 5.46094 99.7246 5.77734ZM105.391 5.90039V5.76562C105.391 5.30859 105.457 4.88477 105.59 4.49414C105.723 4.09961 105.914 3.75781 106.164 3.46875C106.414 3.17578 106.717 2.94922 107.072 2.78906C107.428 2.625 107.826 2.54297 108.268 2.54297C108.713 2.54297 109.113 2.625 109.469 2.78906C109.828 2.94922 110.133 3.17578 110.383 3.46875C110.637 3.75781 110.83 4.09961 110.963 4.49414C111.096 4.88477 111.162 5.30859 111.162 5.76562V5.90039C111.162 6.35742 111.096 6.78125 110.963 7.17188C110.83 7.5625 110.637 7.9043 110.383 8.19727C110.133 8.48633 109.83 8.71289 109.475 8.87695C109.123 9.03711 108.725 9.11719 108.279 9.11719C107.834 9.11719 107.434 9.03711 107.078 8.87695C106.723 8.71289 106.418 8.48633 106.164 8.19727C105.914 7.9043 105.723 7.5625 105.59 7.17188C105.457 6.78125 105.391 6.35742 105.391 5.90039ZM106.475 5.76562V5.90039C106.475 6.2168 106.512 6.51562 106.586 6.79688C106.66 7.07422 106.771 7.32031 106.92 7.53516C107.072 7.75 107.262 7.91992 107.488 8.04492C107.715 8.16602 107.979 8.22656 108.279 8.22656C108.576 8.22656 108.836 8.16602 109.059 8.04492C109.285 7.91992 109.473 7.75 109.621 7.53516C109.77 7.32031 109.881 7.07422 109.955 6.79688C110.033 6.51562 110.072 6.2168 110.072 5.90039V5.76562C110.072 5.45312 110.033 5.1582 109.955 4.88086C109.881 4.59961 109.768 4.35156 109.615 4.13672C109.467 3.91797 109.279 3.74609 109.053 3.62109C108.83 3.49609 108.568 3.43359 108.268 3.43359C107.971 3.43359 107.709 3.49609 107.482 3.62109C107.26 3.74609 107.072 3.91797 106.92 4.13672C106.771 4.35156 106.66 4.59961 106.586 4.88086C106.512 5.1582 106.475 5.45312 106.475 5.76562ZM113.605 3.65625V9H112.521V2.66016H113.576L113.605 3.65625ZM115.586 2.625L115.58 3.63281C115.49 3.61328 115.404 3.60156 115.322 3.59766C115.244 3.58984 115.154 3.58594 115.053 3.58594C114.803 3.58594 114.582 3.625 114.391 3.70312C114.199 3.78125 114.037 3.89062 113.904 4.03125C113.771 4.17188 113.666 4.33984 113.588 4.53516C113.514 4.72656 113.465 4.9375 113.441 5.16797L113.137 5.34375C113.137 4.96094 113.174 4.60156 113.248 4.26562C113.326 3.92969 113.445 3.63281 113.605 3.375C113.766 3.11328 113.969 2.91016 114.215 2.76562C114.465 2.61719 114.762 2.54297 115.105 2.54297C115.184 2.54297 115.273 2.55273 115.375 2.57227C115.477 2.58789 115.547 2.60547 115.586 2.625Z" fill="#EA906C"/>
<g clip-path="url(#clip0_96_5219)">
<path d="M26.7356 14.9464C26.9154 15.0332 27.1273 14.9561 27.2107 14.7792L29.095 10.8302C28.9409 10.6084 28.7804 10.3929 28.6135 10.1807L26.5655 14.4705C26.4853 14.6474 26.5591 14.8596 26.7356 14.9464Z" fill="#2F2E4C"/>
<path d="M31.9999 20.0274C31.9999 16.9082 31.1075 14.0011 29.57 11.5378C28.9376 13.1554 28.1448 15.1234 27.6857 16.0077C26.9571 17.4259 24.9252 17.6896 24.4276 17.7507C21.9688 24.2272 21.4616 30.2375 21.6992 35.0064C27.721 32.704 31.9999 26.8674 31.9999 20.0274ZM24.0456 30.3404C24.0456 30.3404 21.5355 22.9506 29.3774 18.9212C29.3742 18.9212 31.1589 27.7453 24.0456 30.3404Z" fill="#2F2E4C"/>
<path d="M12.0853 32.453C9.04226 16.5415 15.8281 7.84283 19.5516 4.40197C18.4089 4.14149 17.2212 4 15.9982 4C13.1927 4 10.5541 4.72676 8.25903 6.0002C13.7416 11.2998 10.1625 17.2457 10.1625 17.2457C5.62366 14.3644 6.27207 9.32208 6.95579 6.80414C4.38141 8.57281 2.35272 11.0779 1.16504 14.0139C2.66088 13.1392 5.58835 14.6088 7.26395 17.2682C8.82398 19.7411 7.56247 22.526 7.35382 22.944C7.35382 22.944 7.35061 22.944 7.35061 22.9472C9.85759 26.7129 11.148 31.6941 11.8028 35.4951C12.7401 35.7492 13.7127 35.9196 14.711 36L14.4831 32.1925L12.0853 32.453Z" fill="#2F2E4C"/>
<path d="M22.4696 13.5091C23.0731 12.1424 25.0921 8.64686 25.8272 7.38628C24.3282 6.21574 22.6205 5.30247 20.7619 4.72363C14.7208 17.9629 16.6082 31.9611 16.6082 31.9611L17.3658 35.9937C17.8794 35.9518 18.3833 35.8811 18.8809 35.7911C18.9708 27.5619 21.9913 19.9245 23.1726 17.249C23.1244 17.1815 21.7377 15.1652 22.4696 13.5091Z" fill="#2F2E4C"/>
<path d="M25.314 14.2648C25.4905 14.3484 25.7056 14.2744 25.789 14.0975L28.0103 9.44757C27.8402 9.25462 27.6668 9.06489 27.4903 8.88159L25.147 13.7888C25.0604 13.9657 25.1374 14.1812 25.314 14.2648Z" fill="#2F2E4C"/>
<path d="M23.8921 13.5829C24.0686 13.6665 24.2805 13.5925 24.3672 13.4125L26.8356 8.23831C26.6526 8.07109 26.4697 7.90708 26.2803 7.74951L23.7252 13.1037C23.6385 13.2838 23.7155 13.4961 23.8921 13.5829Z" fill="#2F2E4C"/>
<path d="M1.28398 21.0531C0.68051 20.0948 0.301735 19.0464 0.125188 18.0496C0.0449393 18.6991 0 19.3584 0 20.0273C0 26.4941 3.82305 32.0606 9.32812 34.5946C8.99107 29.369 7.39252 25.4812 6.41669 23.5549C5.98656 23.5646 2.85365 23.5453 1.28398 21.0531ZM7.07794 30.0443C3.09439 29.4784 3.04945 24.6965 3.04945 24.6965C7.56906 25.9282 7.07794 30.0443 7.07794 30.0443Z" fill="#2F2E4C"/>
<path d="M4.47831 26.3333C4.18942 25.9892 3.89089 25.6516 3.56348 25.3364C3.77533 25.7384 4.01287 26.1211 4.26004 26.4973C4.5072 26.8736 4.77042 27.2369 5.03684 27.6003C5.30969 27.9573 5.58254 28.3142 5.87464 28.6551C6.16354 28.9992 6.46206 29.3368 6.78948 29.652C6.57762 29.25 6.34008 28.8673 6.09292 28.4911C5.84575 28.1148 5.58254 27.7515 5.31932 27.3881C5.04326 27.0343 4.76721 26.6774 4.47831 26.3333Z" fill="#2F2E4C"/>
<path d="M8.1272 9.20302C8.2556 10.0166 8.41931 10.8238 8.59265 11.6277C8.77561 12.4284 8.96821 13.2291 9.19612 14.0202C9.42081 14.8145 9.66477 15.6024 9.97292 16.3774C9.92477 15.5445 9.81564 14.7277 9.68403 13.9141C9.55563 13.1005 9.39192 12.2934 9.2218 11.4894C9.03883 10.6887 8.84623 9.88797 8.62153 9.09368C8.39684 8.29939 8.15288 7.51153 7.84473 6.73975C7.88646 7.57263 7.99559 8.38943 8.1272 9.20302Z" fill="#2F2E4C"/>
<path d="M26.2574 24.7673C25.9075 25.539 25.5673 26.3108 25.2591 27.1019C24.9477 27.8898 24.6589 28.6873 24.4277 29.5137C24.906 28.803 25.3265 28.0666 25.7246 27.3174C26.1258 26.5713 26.4949 25.8092 26.8545 25.0438C27.2043 24.2753 27.5446 23.5003 27.8528 22.7092C28.1641 21.9213 28.453 21.1238 28.6841 20.2974C28.2058 21.008 27.7853 21.7445 27.3873 22.4905C26.9829 23.2398 26.6169 24.0019 26.2574 24.7673Z" fill="#2F2E4C"/>
</g>
<path d="M54.1147 14.0523V18.2835H45.2838V22.8516H51.8938V26.9565H45.2838V35.7242H40V14.0417H54.1147V14.0523Z" fill="#2D2B4C"/>
<path d="M61.1676 34.903C59.8203 34.1873 58.7572 33.1558 57.9889 31.8191C57.2205 30.4823 56.8311 28.914 56.8311 27.1247C56.8311 25.3564 57.2205 23.7986 58.0099 22.4409C58.7888 21.0936 59.8624 20.0621 61.2202 19.3358C62.578 18.6096 64.1042 18.2517 65.7882 18.2517C67.4723 18.2517 68.9985 18.6096 70.3563 19.3358C71.7141 20.0621 72.7877 21.0936 73.5666 22.4409C74.3454 23.7881 74.7454 25.3459 74.7454 27.1247C74.7454 28.893 74.3454 30.4507 73.556 31.798C72.7666 33.1453 71.6825 34.1873 70.3142 34.903C68.9459 35.6293 67.4197 35.9871 65.7251 35.9871C64.0305 35.9871 62.5148 35.6293 61.1676 34.903ZM68.2933 30.3034C69.009 29.5666 69.3564 28.5035 69.3564 27.1247C69.3564 25.7458 69.009 24.6828 68.3249 23.946C67.6407 23.2092 66.7882 22.8303 65.7777 22.8303C64.7462 22.8303 63.8936 23.1987 63.2095 23.9249C62.5253 24.6512 62.1885 25.7248 62.1885 27.1247C62.1885 28.5035 62.5253 29.5666 63.199 30.3034C63.8726 31.0402 64.7041 31.4191 65.7146 31.4191C66.725 31.4191 67.5881 31.0402 68.2933 30.3034Z" fill="#2D2B4C"/>
<path d="M81.2603 34.903C79.9131 34.1873 78.85 33.1558 78.0816 31.8191C77.3133 30.4823 76.9238 28.914 76.9238 27.1247C76.9238 25.3564 77.3133 23.7986 78.1027 22.4409C78.8816 21.0936 79.9552 20.0621 81.313 19.3358C82.6707 18.6096 84.1969 18.2517 85.881 18.2517C87.5651 18.2517 89.0913 18.6096 90.4491 19.3358C91.8069 20.0621 92.8804 21.0936 93.6593 22.4409C94.4382 23.7881 94.8382 25.3459 94.8382 27.1247C94.8382 28.893 94.4382 30.4507 93.6488 31.798C92.8594 33.1453 91.7753 34.1873 90.407 34.903C89.0386 35.6293 87.5125 35.9871 85.8179 35.9871C84.1233 35.9871 82.6076 35.6187 81.2603 34.903ZM88.3966 30.3034C89.1123 29.5666 89.4597 28.5035 89.4597 27.1247C89.4597 25.7458 89.1123 24.6828 88.4282 23.946C87.744 23.2092 86.8914 22.8303 85.881 22.8303C84.8495 22.8303 83.9969 23.1987 83.3128 23.9249C82.6286 24.6512 82.2918 25.7248 82.2918 27.1247C82.2918 28.5035 82.6286 29.5666 83.3023 30.3034C83.9759 31.0402 84.8074 31.4191 85.8179 31.4191C86.8283 31.4086 87.6809 31.0402 88.3966 30.3034Z" fill="#2D2B4C"/>
<path d="M97.5946 22.4201C98.2683 21.0834 99.1735 20.0519 100.331 19.3362C101.489 18.6099 102.773 18.252 104.194 18.252C105.32 18.252 106.362 18.4836 107.299 18.9678C108.236 19.4414 108.973 20.0835 109.509 20.8834V12.884H114.793V35.7348H109.509V33.2614C109.015 34.0823 108.31 34.7455 107.394 35.2401C106.478 35.7348 105.415 35.9769 104.194 35.9769C102.773 35.9769 101.489 35.6085 100.331 34.8823C99.1735 34.156 98.2683 33.114 97.5946 31.7667C96.921 30.4195 96.5947 28.8617 96.5947 27.0829C96.5947 25.3146 96.9315 23.7674 97.5946 22.4201ZM108.404 23.9989C107.678 23.2411 106.783 22.8517 105.731 22.8517C104.678 22.8517 103.794 23.2306 103.057 23.9779C102.331 24.7357 101.963 25.7672 101.963 27.0829C101.963 28.3986 102.331 29.4406 103.057 30.2195C103.784 30.9879 104.678 31.3773 105.731 31.3773C106.783 31.3773 107.668 30.9984 108.404 30.2405C109.131 29.4827 109.499 28.4407 109.499 27.125C109.499 25.7988 109.141 24.7673 108.404 23.9989Z" fill="#2D2B4C"/>
<path d="M118.994 15.8943C118.404 15.347 118.109 14.6734 118.109 13.8735C118.109 13.0525 118.404 12.3683 118.994 11.821C119.583 11.2737 120.341 11 121.267 11C122.172 11 122.92 11.2737 123.509 11.821C124.098 12.3683 124.393 13.0525 124.393 13.8735C124.393 14.6734 124.098 15.347 123.509 15.8943C122.92 16.4417 122.172 16.7153 121.267 16.7153C120.341 16.7153 119.583 16.4417 118.994 15.8943ZM123.898 18.5047V35.7349H118.615V18.5047H123.898Z" fill="#2D2B4C"/>
<path d="M143.877 28.388H131.93C132.014 29.4616 132.362 30.2826 132.962 30.8404C133.572 31.4088 134.309 31.693 135.204 31.693C136.519 31.693 137.435 31.1351 137.951 30.03H143.571C143.287 31.1562 142.761 32.1772 142.014 33.0824C141.266 33.9875 140.319 34.7033 139.193 35.2085C138.056 35.7242 136.793 35.9769 135.393 35.9769C133.709 35.9769 132.204 35.619 130.888 34.8927C129.572 34.177 128.541 33.1455 127.804 31.8088C127.067 30.472 126.688 28.9037 126.688 27.1144C126.688 25.3251 127.057 23.7568 127.783 22.42C128.509 21.0833 129.541 20.0518 130.857 19.3361C132.172 18.6098 133.688 18.252 135.393 18.252C137.067 18.252 138.54 18.5993 139.845 19.3045C141.14 19.9992 142.15 20.9991 142.887 22.3043C143.624 23.6094 143.982 25.1146 143.982 26.8407C143.971 27.3354 143.94 27.8512 143.877 28.388ZM138.561 25.4514C138.561 24.5462 138.256 23.8305 137.635 23.2937C137.014 22.7569 136.246 22.4937 135.319 22.4937C134.435 22.4937 133.688 22.7569 133.077 23.2726C132.467 23.7884 132.099 24.5146 131.951 25.4619H138.561V25.4514Z" fill="#2D2B4C"/>
<path d="M165.53 14.052V35.7345H160.246V26.8089H152.026V35.7345H146.742V14.052H152.026V22.5461H160.246V14.052H165.53Z" fill="#EA906C"/>
<path d="M186.348 18.5047V35.7349H181.064V33.3877C180.527 34.1455 179.801 34.7665 178.885 35.2296C177.969 35.6928 176.959 35.9243 175.843 35.9243C174.527 35.9243 173.359 35.6296 172.349 35.0402C171.338 34.4508 170.559 33.5982 170.001 32.493C169.444 31.3773 169.17 30.0722 169.17 28.567V18.4941H174.422V27.8513C174.422 28.9986 174.717 29.9038 175.317 30.5353C175.917 31.1773 176.717 31.4931 177.727 31.4931C178.759 31.4931 179.569 31.1773 180.169 30.5353C180.769 29.8932 181.064 28.9986 181.064 27.8513V18.4941H186.348V18.5047Z" fill="#EA906C"/>
<path d="M197.557 18.9991C198.484 18.5044 199.547 18.2623 200.736 18.2623C202.157 18.2623 203.441 18.6202 204.599 19.3464C205.746 20.0727 206.662 21.0937 207.336 22.4304C208.009 23.7671 208.335 25.3249 208.335 27.0932C208.335 28.8615 207.999 30.4298 207.336 31.777C206.662 33.1243 205.757 34.1663 204.599 34.8926C203.441 35.6188 202.157 35.9872 200.736 35.9872C199.515 35.9872 198.463 35.7451 197.557 35.261C196.652 34.7768 195.936 34.1347 195.431 33.3348V35.7451H190.147V12.8838H195.431V20.9463C195.915 20.1358 196.631 19.4938 197.557 18.9991ZM201.862 23.9882C201.136 23.2409 200.231 22.8619 199.157 22.8619C198.105 22.8619 197.221 23.2409 196.484 24.0092C195.758 24.7671 195.389 25.8091 195.389 27.1248C195.389 28.4404 195.758 29.4825 196.484 30.2403C197.21 30.9981 198.105 31.3771 199.157 31.3771C200.21 31.3771 201.104 30.9876 201.841 30.2193C202.578 29.4404 202.957 28.3983 202.957 27.0827C202.957 25.767 202.589 24.7355 201.862 23.9882Z" fill="#EA906C"/>
<defs>
<clipPath id="clip0_96_5219">
<rect width="32" height="32" fill="white" transform="translate(0 4)"/>
</clipPath>
</defs>
</svg>
