<svg width="210" height="32" viewBox="0 0 210 32" fill="none" xmlns="http://www.w3.org/2000/svg">
<g clip-path="url(#clip0_4119_1251)">
<path d="M26.7356 10.9464C26.9154 11.0332 27.1273 10.9561 27.2107 10.7792L29.095 6.83025C28.9409 6.60836 28.7804 6.3929 28.6135 6.18066L26.5655 10.4705C26.4853 10.6474 26.5591 10.8596 26.7356 10.9464Z" fill="#2F2E4C"/>
<path d="M31.9999 16.0274C31.9999 12.9082 31.1075 10.0011 29.57 7.53784C28.9376 9.15537 28.1448 11.1234 27.6857 12.0077C26.9571 13.4259 24.9252 13.6896 24.4276 13.7507C21.9688 20.2272 21.4616 26.2375 21.6992 31.0064C27.721 28.704 31.9999 22.8674 31.9999 16.0274ZM24.0456 26.3404C24.0456 26.3404 21.5355 18.9506 29.3774 14.9212C29.3742 14.9212 31.1589 23.7453 24.0456 26.3404Z" fill="#2F2E4C"/>
<path d="M12.0853 28.453C9.04226 12.5415 15.8281 3.84283 19.5516 0.40197C18.4089 0.141493 17.2212 0 15.9982 0C13.1927 0 10.5541 0.726761 8.25903 2.0002C13.7416 7.29977 10.1625 13.2457 10.1625 13.2457C5.62366 10.3644 6.27207 5.32208 6.95579 2.80414C4.38141 4.57281 2.35272 7.07788 1.16504 10.0139C2.66088 9.13918 5.58835 10.6088 7.26395 13.2682C8.82398 15.7411 7.56247 18.526 7.35382 18.944C7.35382 18.944 7.35061 18.944 7.35061 18.9472C9.85759 22.7129 11.148 27.6941 11.8028 31.4951C12.7401 31.7492 13.7127 31.9196 14.711 32L14.4831 28.1925L12.0853 28.453Z" fill="#2F2E4C"/>
<path d="M22.4696 9.50908C23.0731 8.14238 25.0921 4.64686 25.8272 3.38628C24.3282 2.21574 22.6205 1.30247 20.7619 0.723633C14.7208 13.9629 16.6082 27.9611 16.6082 27.9611L17.3658 31.9937C17.8794 31.9518 18.3833 31.8811 18.8809 31.7911C18.9708 23.5619 21.9913 15.9245 23.1726 13.249C23.1244 13.1815 21.7377 11.1652 22.4696 9.50908Z" fill="#2F2E4C"/>
<path d="M25.314 10.2648C25.4905 10.3484 25.7056 10.2744 25.789 10.0975L28.0103 5.44757C27.8402 5.25462 27.6668 5.06489 27.4903 4.88159L25.147 9.78884C25.0604 9.9657 25.1374 10.1812 25.314 10.2648Z" fill="#2F2E4C"/>
<path d="M23.8921 9.58289C24.0686 9.6665 24.2805 9.59254 24.3672 9.41246L26.8356 4.23831C26.6526 4.07109 26.4697 3.90708 26.2803 3.74951L23.7252 9.10375C23.6385 9.28383 23.7155 9.49607 23.8921 9.58289Z" fill="#2F2E4C"/>
<path d="M1.28398 17.0531C0.68051 16.0948 0.301735 15.0464 0.125188 14.0496C0.0449393 14.6991 0 15.3584 0 16.0273C0 22.4941 3.82305 28.0606 9.32812 30.5946C8.99107 25.369 7.39252 21.4812 6.41669 19.5549C5.98656 19.5646 2.85365 19.5453 1.28398 17.0531ZM7.07794 26.0443C3.09439 25.4784 3.04945 20.6965 3.04945 20.6965C7.56906 21.9282 7.07794 26.0443 7.07794 26.0443Z" fill="#2F2E4C"/>
<path d="M4.47831 22.3333C4.18942 21.9892 3.89089 21.6516 3.56348 21.3364C3.77533 21.7384 4.01287 22.1211 4.26004 22.4973C4.5072 22.8736 4.77042 23.2369 5.03684 23.6003C5.30969 23.9573 5.58254 24.3142 5.87464 24.6551C6.16354 24.9992 6.46206 25.3368 6.78948 25.652C6.57762 25.25 6.34008 24.8673 6.09292 24.4911C5.84575 24.1148 5.58254 23.7515 5.31932 23.3881C5.04326 23.0343 4.76721 22.6774 4.47831 22.3333Z" fill="#2F2E4C"/>
<path d="M8.1272 5.20302C8.2556 6.0166 8.41931 6.82376 8.59265 7.6277C8.77561 8.42842 8.96821 9.22914 9.19612 10.0202C9.42081 10.8145 9.66477 11.6024 9.97292 12.3774C9.92477 11.5445 9.81564 10.7277 9.68403 9.9141C9.55563 9.10051 9.39192 8.29336 9.2218 7.48942C9.03883 6.6887 8.84623 5.88797 8.62153 5.09368C8.39684 4.29939 8.15288 3.51153 7.84473 2.73975C7.88646 3.57263 7.99559 4.38943 8.1272 5.20302Z" fill="#2F2E4C"/>
<path d="M26.2574 20.7673C25.9075 21.539 25.5673 22.3108 25.2591 23.1019C24.9477 23.8898 24.6589 24.6873 24.4277 25.5137C24.906 24.803 25.3265 24.0666 25.7246 23.3174C26.1258 22.5713 26.4949 21.8092 26.8545 21.0438C27.2043 20.2753 27.5446 19.5003 27.8528 18.7092C28.1641 17.9213 28.453 17.1238 28.6841 16.2974C28.2058 17.008 27.7853 17.7445 27.3873 18.4905C26.9829 19.2398 26.6169 20.0019 26.2574 20.7673Z" fill="#2F2E4C"/>
</g>
<path d="M55.7797 5.78397V10.0152H46.9488V14.5833H53.5588V18.6882H46.9488V27.4559H41.665V5.77344H55.7797V5.78397Z" fill="#2D2B4C"/>
<path d="M62.8326 26.6347C61.4853 25.919 60.4223 24.8875 59.6539 23.5507C58.8855 22.214 58.4961 20.6457 58.4961 18.8564C58.4961 17.0881 58.8855 15.5303 59.675 14.1725C60.4538 12.8253 61.5274 11.7938 62.8852 11.0675C64.243 10.3413 65.7692 9.9834 67.4533 9.9834C69.1374 9.9834 70.6635 10.3413 72.0213 11.0675C73.3791 11.7938 74.4527 12.8253 75.2316 14.1725C76.0105 15.5198 76.4105 17.0776 76.4105 18.8564C76.4105 20.6247 76.0105 22.1824 75.2211 23.5297C74.4317 24.8769 73.3475 25.919 71.9792 26.6347C70.6109 27.361 69.0847 27.7188 67.3901 27.7188C65.6955 27.7188 64.1799 27.361 62.8326 26.6347ZM69.9583 22.0351C70.6741 21.2983 71.0214 20.2352 71.0214 18.8564C71.0214 17.4775 70.6741 16.4145 69.9899 15.6777C69.3058 14.9409 68.4532 14.562 67.4427 14.562C66.4113 14.562 65.5587 14.9304 64.8745 15.6566C64.1904 16.3829 63.8536 17.4565 63.8536 18.8564C63.8536 20.2352 64.1904 21.2983 64.864 22.0351C65.5376 22.7719 66.3692 23.1508 67.3796 23.1508C68.39 23.1508 69.2531 22.7719 69.9583 22.0351Z" fill="#2D2B4C"/>
<path d="M82.9254 26.6347C81.5781 25.919 80.515 24.8875 79.7467 23.5507C78.9783 22.214 78.5889 20.6457 78.5889 18.8564C78.5889 17.0881 78.9783 15.5303 79.7677 14.1725C80.5466 12.8253 81.6202 11.7938 82.978 11.0675C84.3358 10.3413 85.862 9.9834 87.546 9.9834C89.2301 9.9834 90.7563 10.3413 92.1141 11.0675C93.4719 11.7938 94.5455 12.8253 95.3244 14.1725C96.1033 15.5198 96.5032 17.0776 96.5032 18.8564C96.5032 20.6247 96.1033 22.1824 95.3138 23.5297C94.5244 24.8769 93.4403 25.919 92.072 26.6347C90.7037 27.361 89.1775 27.7188 87.4829 27.7188C85.7883 27.7188 84.2726 27.3504 82.9254 26.6347ZM90.0616 22.0351C90.7774 21.2983 91.1247 20.2352 91.1247 18.8564C91.1247 17.4775 90.7774 16.4145 90.0932 15.6777C89.4091 14.9409 88.5565 14.562 87.546 14.562C86.5145 14.562 85.662 14.9304 84.9778 15.6566C84.2937 16.3829 83.9569 17.4565 83.9569 18.8564C83.9569 20.2352 84.2937 21.2983 84.9673 22.0351C85.6409 22.7719 86.4724 23.1508 87.4829 23.1508C88.4933 23.1402 89.3459 22.7719 90.0616 22.0351Z" fill="#2D2B4C"/>
<path d="M99.2597 14.1518C99.9333 12.8151 100.839 11.7836 101.996 11.0678C103.154 10.3416 104.438 9.98371 105.859 9.98371C106.985 9.98371 108.027 10.2153 108.964 10.6994C109.901 11.1731 110.638 11.8151 111.175 12.6151V4.61572H116.458V27.4665H111.175V24.993C110.68 25.814 109.975 26.4771 109.059 26.9718C108.143 27.4665 107.08 27.7086 105.859 27.7086C104.438 27.7086 103.154 27.3402 101.996 26.614C100.839 25.8877 99.9333 24.8457 99.2597 23.4984C98.5861 22.1512 98.2598 20.5934 98.2598 18.8146C98.2598 17.0463 98.5966 15.4991 99.2597 14.1518ZM110.069 15.7306C109.343 14.9728 108.448 14.5834 107.396 14.5834C106.343 14.5834 105.459 14.9623 104.722 15.7096C103.996 16.4674 103.628 17.4989 103.628 18.8146C103.628 20.1303 103.996 21.1723 104.722 21.9512C105.449 22.7195 106.343 23.109 107.396 23.109C108.448 23.109 109.333 22.7301 110.069 21.9722C110.796 21.2144 111.164 20.1724 111.164 18.8567C111.164 17.5305 110.806 16.499 110.069 15.7306Z" fill="#2D2B4C"/>
<path d="M120.659 7.62604C120.069 7.07871 119.774 6.40508 119.774 5.60514C119.774 4.78416 120.069 4.1 120.659 3.55268C121.248 3.00535 122.006 2.73169 122.932 2.73169C123.837 2.73169 124.585 3.00535 125.174 3.55268C125.763 4.1 126.058 4.78416 126.058 5.60514C126.058 6.40508 125.763 7.07871 125.174 7.62604C124.585 8.17336 123.837 8.44702 122.932 8.44702C122.006 8.44702 121.248 8.17336 120.659 7.62604ZM125.563 10.2364V27.4666H120.28V10.2364H125.563Z" fill="#2D2B4C"/>
<path d="M145.542 20.1197H133.595C133.679 21.1933 134.027 22.0143 134.627 22.5721C135.237 23.1405 135.974 23.4247 136.869 23.4247C138.184 23.4247 139.1 22.8668 139.616 21.7617H145.236C144.952 22.8879 144.426 23.9089 143.679 24.814C142.931 25.7192 141.984 26.435 140.858 26.9402C139.721 27.4559 138.458 27.7086 137.058 27.7086C135.374 27.7086 133.869 27.3507 132.553 26.6244C131.238 25.9087 130.206 24.8772 129.469 23.5405C128.732 22.2037 128.354 20.6354 128.354 18.8461C128.354 17.0568 128.722 15.4885 129.448 14.1517C130.174 12.815 131.206 11.7835 132.522 11.0678C133.837 10.3415 135.353 9.98364 137.058 9.98364C138.732 9.98364 140.205 10.331 141.51 11.0362C142.805 11.7309 143.815 12.7308 144.552 14.036C145.289 15.3411 145.647 16.8463 145.647 18.5724C145.636 19.0671 145.605 19.5829 145.542 20.1197ZM140.226 17.1831C140.226 16.2779 139.921 15.5621 139.3 15.0253C138.679 14.4885 137.911 14.2254 136.984 14.2254C136.1 14.2254 135.353 14.4885 134.742 15.0043C134.132 15.52 133.764 16.2463 133.616 17.1936H140.226V17.1831Z" fill="#2D2B4C"/>
<path d="M167.195 5.78369V27.4662H161.911V18.5406H153.691V27.4662H148.407V5.78369H153.691V14.2778H161.911V5.78369H167.195Z" fill="#EA906C"/>
<path d="M188.013 10.2364V27.4666H182.729V25.1194C182.192 25.8772 181.466 26.4982 180.55 26.9613C179.634 27.4245 178.624 27.656 177.508 27.656C176.192 27.656 175.024 27.3613 174.014 26.7719C173.003 26.1825 172.224 25.3299 171.666 24.2247C171.109 23.109 170.835 21.8039 170.835 20.2987V10.2258H176.087V19.583C176.087 20.7303 176.382 21.6354 176.982 22.267C177.582 22.909 178.382 23.2248 179.392 23.2248C180.424 23.2248 181.234 22.909 181.834 22.267C182.434 21.6249 182.729 20.7303 182.729 19.583V10.2258H188.013V10.2364Z" fill="#EA906C"/>
<path d="M199.222 10.7308C200.149 10.2361 201.212 9.994 202.401 9.994C203.822 9.994 205.106 10.3519 206.264 11.0781C207.411 11.8044 208.327 12.8254 209.001 14.1621C209.674 15.4988 210.001 17.0566 210.001 18.8249C210.001 20.5932 209.664 22.1615 209.001 23.5087C208.327 24.856 207.422 25.898 206.264 26.6243C205.106 27.3505 203.822 27.7189 202.401 27.7189C201.18 27.7189 200.128 27.4768 199.222 26.9926C198.317 26.5085 197.602 25.8664 197.096 25.0665V27.4768H191.812V4.61548H197.096V12.678C197.58 11.8675 198.296 11.2255 199.222 10.7308ZM203.527 15.7199C202.801 14.9725 201.896 14.5936 200.822 14.5936C199.77 14.5936 198.886 14.9725 198.149 15.7409C197.423 16.4987 197.054 17.5408 197.054 18.8564C197.054 20.1721 197.423 21.2142 198.149 21.972C198.875 22.7298 199.77 23.1087 200.822 23.1087C201.875 23.1087 202.77 22.7193 203.506 21.9509C204.243 21.1721 204.622 20.13 204.622 18.8144C204.622 17.4987 204.254 16.4672 203.527 15.7199Z" fill="#EA906C"/>
<defs>
<clipPath id="clip0_4119_1251">
<rect width="32" height="32" fill="white"/>
</clipPath>
</defs>
</svg>

